<?xml version="1.0" encoding="utf-8"?>
<!-- Generator: Adobe Illustrator 23.0.3, SVG Export Plug-In . SVG Version: 6.00 Build 0)  -->
<svg version="1.1" id="Disk_Choir" xmlns="http://www.w3.org/2000/svg" xmlns:xlink="http://www.w3.org/1999/xlink" x="0px" y="0px"
	 viewBox="0 0 443.6 443.7" style="enable-background:new 0 0 443.6 443.7;" xml:space="preserve">
<style type="text/css">
	.st0{fill:#010101;}
	.st1{fill:none;stroke:#6D6E71;stroke-width:5;stroke-miterlimit:10;}
	.st2{fill:#999999;stroke:#6D6E71;stroke-width:5;stroke-miterlimit:10;}
	.st3{fill:#FFFFFF;}
</style>
<path id="Blackoutterdisk" class="st0" d="M0,239.7c0-11.8,0-23.7,0-35.5c1-7.5,0.8-15.1,2.2-22.6c6-31,17.5-59.6,35.3-85.7
	c8.1-11.8,17-23,27.3-32.9c34.9-33.5,75.9-54.8,124-61.8c5.1-0.7,10.3-0.3,15.4-1.2c11.2,0,22.5,0,33.7,0c3,1.1,6.3,0.5,9.4,0.7
	c21.4,1.4,41.6,7.7,61.3,15.8c25.9,10.6,49,25.9,68.7,45.7c35.4,35.6,57.7,78.2,64.8,128.1c2.3,16,1.4,32.2,1,48.3
	c-0.4,16.6-3.9,32.6-8.6,48.3c-5.3,17.8-12.9,34.5-22.5,50.4c-9.6,15.7-20.7,30.2-33.9,43c-35.2,34.1-77.1,55.2-125.8,61.9
	c-16,2.2-32.2,1.5-48.3,0.9c-27.9-0.9-53.9-9-78.9-20.7c-19.3-9.1-36.7-21-52.6-35.2c-17.2-15.3-31.4-32.9-43-52.7
	c-14.6-24.9-24.2-51.6-28.2-80.2C0.5,249.4,0.9,244.5,0,239.7z"/>
<path id="thinring" class="st1" d="M46.9,231.4c0-9.3,0-18.7,0-28c0.8-5.9,0.6-11.9,1.8-17.9c4.7-24.4,13.8-47,27.8-67.6
	c6.4-9.3,13.4-18.1,21.5-25.9c27.5-26.4,59.9-43.2,97.8-48.7c4-0.6,8.1-0.2,12.1-0.9c8.9,0,17.7,0,26.6,0c2.4,0.9,4.9,0.4,7.4,0.5
	c16.9,1.1,32.8,6.1,48.3,12.4c20.5,8.4,38.7,20.4,54.2,36c27.9,28,45.5,61.6,51.1,101c1.8,12.6,1.1,25.4,0.8,38.1
	c-0.3,13.1-3.1,25.7-6.8,38.1c-4.2,14-10.1,27.2-17.8,39.7c-7.6,12.4-16.3,23.8-26.7,33.9c-27.8,26.9-60.8,43.5-99.2,48.8
	c-12.6,1.7-25.4,1.2-38.1,0.7c-22-0.7-42.5-7.1-62.2-16.4c-15.2-7.2-28.9-16.6-41.5-27.8c-13.5-12.1-24.8-26-33.9-41.6
	c-11.5-19.6-19.1-40.7-22.3-63.3C47.3,239.1,47.6,235.2,46.9,231.4z"/>
<path id="GreyInnerDisk" class="st2" d="M82.9,228.5c0-7.4,0-14.8,0-22.2c0.6-4.7,0.5-9.5,1.4-14.2c3.8-19.4,10.9-37.3,22.1-53.7
	c5.1-7.4,10.6-14.4,17.1-20.6c21.8-21,47.5-34.3,77.7-38.7c3.2-0.5,6.4-0.2,9.6-0.7c7,0,14.1,0,21.1,0c1.9,0.7,3.9,0.3,5.9,0.4
	c13.4,0.9,26,4.8,38.4,9.9c16.2,6.7,30.7,16.2,43,28.6c22.2,22.3,36.1,49,40.6,80.2c1.4,10,0.9,20.1,0.6,30.2
	c-0.2,10.4-2.4,20.4-5.4,30.3c-3.3,11.1-8.1,21.6-14.1,31.6c-6,9.8-13,18.9-21.2,26.9c-22.1,21.4-48.3,34.6-78.8,38.8
	c-10,1.4-20.1,0.9-30.3,0.6c-17.5-0.6-33.8-5.6-49.4-13c-12.1-5.7-23-13.2-33-22.1c-10.7-9.6-19.7-20.6-26.9-33
	c-9.1-15.6-15.2-32.3-17.7-50.2C83.2,234.6,83.5,231.5,82.9,228.5z"/>
<g id="Choir">
	<g id="Bodies">
		<path id="Body3" d="M205.6,234.4c-4.6,0-8.2,0-12.2,0c-0.2-1.5-0.4-2.8-0.4-4c0-13.3,0-26.7,0.1-40c0.1-9.8,5.7-15.5,15.5-15.7
			c9.2-0.1,18.3-0.1,27.5,0c9.5,0.2,15.2,5.9,15.3,15.3c0.1,14.6,0,29.2,0,44.3c-4.2,0-7.9,0-12.1,0c0,18.7,0,37,0,55.7
			c-11.3,0-22.2,0-33.7,0C205.6,271.8,205.6,253.4,205.6,234.4z M237,206.9c0-6.1,0-12.1,0-18.8c-3.9,1.8-7.4,3.2-10.6,5.1
			c-3.2,1.9-6,1.8-9.2,0c-3.4-1.9-7-3.3-10.7-5c0,6.8,0,12.8,0,18.9c8.6-3.6,12.7-1,11.8,8.1c2.4,0,4.8,0,7.2,0
			C224.3,206,228,203.6,237,206.9z"/>
		<path id="Body2" d="M318.3,234.3c-4.1,0-7.8,0-12,0c0,18.7,0,37.1,0,55.8c-11.5,0-22.4,0-33.7,0c0-18.3,0-36.6,0-55.5
			c-4.3,0-8.2,0-12.6,0c0-9.2,0-17.9,0-26.5c0-6.2-0.1-12.3,0.1-18.5c0.2-8.7,5.6-14.6,14.2-14.9c10-0.3,20-0.3,30,0
			c7.8,0.2,13.8,5.7,13.9,13C318.5,203.1,318.3,218.4,318.3,234.3z M293.8,215.1c-2.5-4.4-1.8-7.6,1.7-8.8c2.7-0.9,5.9-0.2,8.8-0.2
			c0-5.5,0-11.5,0-17.9c-4,1.9-7.6,3.4-10.9,5.2c-2.9,1.6-5.4,1.6-8.3,0c-3.4-1.9-7.1-3.4-11.1-5.3c0,6.7,0,12.6,0,18.6
			c9.2-2.8,13.1-0.2,11.3,8.3C288,215.1,290.4,215.1,293.8,215.1z"/>
		<path id="Body1" d="M183.3,234.6c-3.9,0-7.6,0-11.8,0c0,18.6,0,36.9,0,55.5c-11.1,0-21.9,0-33.3,0c0-18.2,0-36.6,0-55.4
			c-4.5,0-8.4,0-13,0c0-5.9,0-11.4,0-16.8c0-9.2,0-18.3,0-27.5c0.1-9.3,5.9-15.4,15.2-15.6c9.5-0.2,19-0.2,28.5,0
			c8.6,0.2,14.8,5.9,15,14.3c0.3,14.5,0.1,29,0.1,43.5C184,233,183.6,233.7,183.3,234.6z M170,205.7c0-4.9,0-10.9,0-17.6
			c-2.8,1.3-5.4,2.1-7.5,3.5c-5.2,3.5-10.2,3.8-15.5,0.1c-2.2-1.5-4.9-2.3-7.7-3.6c0,6.8,0,12.8,0,18.8c9.4-3.1,12.8-0.9,11.8,8.2
			c2.5,0,5,0,6,0c1.2-3.7,1.4-7.3,2.8-8C162.8,205.8,166.5,206.1,170,205.7z"/>
		<path id="Head3" d="M302.1,157.7c-0.1,7.2-6,12.9-13.2,12.7c-7.2-0.1-12.9-6.1-12.7-13.3c0.2-6.9,6.1-12.6,12.9-12.6
			C296.3,144.6,302.2,150.5,302.1,157.7z"/>
		<path id="Head2" d="M235.1,157.3c0.1,7.1-5.6,13.1-12.8,13.1c-7,0-12.8-5.4-13-12.4c-0.3-7.1,5.5-13.2,12.6-13.4
			C228.9,144.3,235,150.2,235.1,157.3z"/>
		<path id="Head1" d="M167.5,157.4c0,7.2-5.7,13-12.9,13c-7.2,0-12.9-5.8-12.8-13c0.1-6.9,5.7-12.7,12.6-12.8
			C161.5,144.4,167.5,150.3,167.5,157.4z"/>
	</g>
	<g id="BOOKS">
		<path id="Book3" class="st3" d="M293.8,215.1c-3.4,0-5.8,0-8.5,0c1.8-8.6-2.1-11.2-11.3-8.3c0-6,0-12,0-18.6
			c4,1.9,7.7,3.4,11.1,5.3c2.9,1.6,5.4,1.6,8.3,0c3.3-1.9,6.9-3.3,10.9-5.2c0,6.4,0,12.4,0,17.9c-2.9,0-6.1-0.7-8.8,0.2
			C292,207.5,291.3,210.7,293.8,215.1z"/>
		<path id="Book2" class="st3" d="M237,206.9c-9-3.3-12.7-0.9-11.5,8.3c-2.5,0-4.8,0-7.2,0c0.9-9.1-3.2-11.7-11.8-8.1
			c0-6.1,0-12.2,0-18.9c3.7,1.7,7.3,3.1,10.7,5c3.2,1.8,6,1.9,9.2,0c3.2-1.9,6.8-3.3,10.6-5.1C237,194.8,237,200.8,237,206.9z"/>
		<path id="Book1" class="st3" d="M170,205.7c-3.5,0.4-7.2,0.1-10.1,1.4c-1.5,0.7-1.6,4.3-2.8,8c-1,0-3.4,0-6,0
			c1-9.1-2.4-11.2-11.8-8.2c0-6,0-12,0-18.8c2.9,1.3,5.6,2.1,7.7,3.6c5.3,3.7,10.2,3.5,15.5-0.1c2.1-1.4,4.7-2.2,7.5-3.5
			C170,194.8,170,200.9,170,205.7z"/>
	</g>
</g>
</svg>
