<?xml version="1.0" encoding="utf-8"?>
<!-- Generator: Adobe Illustrator 23.0.3, SVG Export Plug-In . SVG Version: 6.00 Build 0)  -->
<svg version="1.1" id="Disk_Cloud" xmlns="http://www.w3.org/2000/svg" xmlns:xlink="http://www.w3.org/1999/xlink" x="0px" y="0px"
	 viewBox="0 0 443.6 443.7" style="enable-background:new 0 0 443.6 443.7;" xml:space="preserve">
<style type="text/css">
	.st0{fill:#010101;}
	.st1{fill:none;stroke:#6D6E71;stroke-width:5;stroke-miterlimit:10;}
	.st2{fill:#999999;stroke:#6D6E71;stroke-width:5;stroke-miterlimit:10;}
	.st3{fill:#FFFFFF;}
</style>
<path id="Blackoutterdisk" class="st0" d="M0,239.7c0-11.8,0-23.7,0-35.5c1-7.5,0.8-15.1,2.2-22.6c6-31,17.5-59.6,35.3-85.7
	c8.1-11.8,17-23,27.3-32.9c34.9-33.5,75.9-54.8,124-61.8c5.1-0.7,10.3-0.3,15.4-1.2c11.2,0,22.5,0,33.7,0c3,1.1,6.3,0.5,9.4,0.7
	c21.4,1.4,41.6,7.7,61.3,15.8c25.9,10.6,49,25.9,68.7,45.7c35.4,35.6,57.7,78.2,64.8,128.1c2.3,16,1.4,32.2,1,48.3
	c-0.4,16.6-3.9,32.6-8.6,48.3c-5.3,17.8-12.9,34.5-22.5,50.4c-9.6,15.7-20.7,30.2-33.9,43c-35.2,34.1-77.1,55.2-125.8,61.9
	c-16,2.2-32.2,1.5-48.3,0.9c-27.9-0.9-53.9-9-78.9-20.7c-19.3-9.1-36.7-21-52.6-35.2c-17.2-15.3-31.4-32.9-43-52.7
	c-14.6-24.9-24.2-51.6-28.2-80.2C0.5,249.4,0.9,244.5,0,239.7z"/>
<path id="thinring" class="st1" d="M46.9,231.4c0-9.3,0-18.7,0-28c0.8-5.9,0.6-11.9,1.8-17.9c4.7-24.4,13.8-47,27.8-67.6
	c6.4-9.3,13.4-18.1,21.5-25.9c27.5-26.4,59.9-43.2,97.8-48.7c4-0.6,8.1-0.2,12.1-0.9c8.9,0,17.7,0,26.6,0c2.4,0.9,4.9,0.4,7.4,0.5
	c16.9,1.1,32.8,6.1,48.3,12.4c20.5,8.4,38.7,20.4,54.2,36c27.9,28,45.5,61.6,51.1,101c1.8,12.6,1.1,25.4,0.8,38.1
	c-0.3,13.1-3.1,25.7-6.8,38.1c-4.2,14-10.1,27.2-17.8,39.7c-7.6,12.4-16.3,23.8-26.7,33.9c-27.8,26.9-60.8,43.5-99.2,48.8
	c-12.6,1.7-25.4,1.2-38.1,0.7c-22-0.7-42.5-7.1-62.2-16.4c-15.2-7.2-28.9-16.6-41.5-27.8c-13.5-12.1-24.8-26-33.9-41.6
	c-11.5-19.6-19.1-40.7-22.3-63.3C47.3,239.1,47.6,235.2,46.9,231.4z"/>
<path id="GreyInnerDisk" class="st2" d="M82.9,228.5c0-7.4,0-14.8,0-22.2c0.6-4.7,0.5-9.5,1.4-14.2c3.8-19.4,10.9-37.3,22.1-53.7
	c5.1-7.4,10.6-14.4,17.1-20.6c21.8-21,47.5-34.3,77.7-38.7c3.2-0.5,6.4-0.2,9.6-0.7c7,0,14.1,0,21.1,0c1.9,0.7,3.9,0.3,5.9,0.4
	c13.4,0.9,26,4.8,38.4,9.9c16.2,6.7,30.7,16.2,43,28.6c22.2,22.3,36.1,49,40.6,80.2c1.4,10,0.9,20.1,0.6,30.2
	c-0.2,10.4-2.4,20.4-5.4,30.3c-3.3,11.1-8.1,21.6-14.1,31.6c-6,9.8-13,18.9-21.2,26.9c-22.1,21.4-48.3,34.6-78.8,38.8
	c-10,1.4-20.1,0.9-30.3,0.6c-17.5-0.6-33.8-5.6-49.4-13c-12.1-5.7-23-13.2-33-22.1c-10.7-9.6-19.7-20.6-26.9-33
	c-9.1-15.6-15.2-32.3-17.7-50.2C83.2,234.6,83.5,231.5,82.9,228.5z"/>
<g id="Cloud">
	<path id="CloudStroke" d="M225.4,271.1c-29.1,0-58.2,0-87.3,0c-15.2,0-28.6-5-39.2-16.2c-16.4-17.3-15.2-43.7,2.6-59.7
		c5.2-4.7,11.1-8.2,17.7-10.5c1.2-0.4,1.7-0.9,1.8-2.3c1.2-29.8,22.6-54.9,52-60.9c23.6-4.8,44.5,0.8,62.4,17.1
		c1.7,1.5,3.2,3.2,4.7,5c0.8,1,1.6,1.1,2.8,0.8c21.4-5.2,40.1-0.6,55.5,15.4c5.5,5.8,9.1,12.7,11.2,20.4c0.3,1.2,0.8,1.5,2,1.4
		c18.3-0.7,31.6,7.6,39.5,23.7c8.2,16.6,6.9,33.2-3.9,48.3c-8.5,12-20.5,17.7-35.4,17.3c-6.6-0.2-13.2-0.1-19.8-0.1
		C269.8,271,247.6,271,225.4,271.1C225.4,271,225.4,271,225.4,271.1z M237.3,158.2c-1.7-2.3-3.2-4.6-5-6.7
		c-17.3-20.9-47.8-26.9-71.7-13.7c-17.6,9.7-27.6,24.6-28.6,45c-0.2,3.2,0,6.5,0,9.9c-1,0.2-2.2,0.5-3.4,0.8
		c-6.3,1.3-12,3.8-17.2,7.7c-17.1,13.1-17.5,36.2-0.7,49.6c8.1,6.5,17.5,9.3,27.8,9.3c42.5,0,85.1,0,127.6-0.1
		c15.9,0,31.8,0.1,47.8,0c6.8,0,12.8-2.1,18.1-6.3c13.2-10.5,16.8-29.7,8.6-44.6c-6.8-12.3-20.5-19.6-35.3-15.2
		c-1.5,0.4-3,0.8-4.8,1.2c-0.4-16-7-28.4-21-36.2C265.8,151.3,251.6,151.7,237.3,158.2z"/>
	<path id="InsideCloud" class="st3" d="M237.3,158.2c14.3-6.5,28.5-6.9,42.3,0.7c14,7.8,20.6,20.2,21,36.2c1.8-0.5,3.4-0.8,4.8-1.2
		c14.8-4.4,28.5,2.9,35.3,15.2c8.2,14.9,4.5,34.2-8.6,44.6c-5.3,4.2-11.4,6.3-18.1,6.3c-15.9,0-31.8,0-47.8,0
		c-42.5,0-85.1,0-127.6,0.1c-10.3,0-19.7-2.8-27.8-9.3c-16.8-13.4-16.4-36.6,0.7-49.6c5.1-3.9,10.9-6.4,17.2-7.7
		c1.2-0.3,2.4-0.5,3.4-0.8c0-3.4-0.1-6.6,0-9.9c1-20.4,11-35.3,28.6-45c23.9-13.2,54.4-7.2,71.7,13.7
		C234.1,153.6,235.6,155.9,237.3,158.2z M166.8,143c-15.6,9.9-27.6,34.3-23.2,47.2c1.4-0.2,2.8-0.4,4.2-0.7c0.2,0,0.5-0.2,0.7-0.3
		c-0.9-18,7.4-31.4,21.4-41.9C168.9,145.8,167.9,144.5,166.8,143z"/>
	<path id="Curve" d="M166.8,143c1,1.5,2,2.8,3.1,4.3c-14,10.5-22.3,23.9-21.4,41.9c-0.2,0.1-0.5,0.2-0.7,0.3
		c-1.4,0.2-2.8,0.5-4.2,0.7C139.3,177.3,151.3,152.9,166.8,143z"/>
</g>
</svg>
