<?xml version="1.0" encoding="utf-8"?>
<!-- Generator: Adobe Illustrator 23.0.3, SVG Export Plug-In . SVG Version: 6.00 Build 0)  -->
<svg version="1.1" id="Disk_Flute" xmlns="http://www.w3.org/2000/svg" xmlns:xlink="http://www.w3.org/1999/xlink" x="0px" y="0px"
	 viewBox="0 0 443.6 443.7" style="enable-background:new 0 0 443.6 443.7;" xml:space="preserve">
<style type="text/css">
	.st0{fill:#010101;}
	.st1{fill:none;stroke:#6D6E71;stroke-width:5;stroke-miterlimit:10;}
	.st2{fill:#999999;stroke:#6D6E71;stroke-width:5;stroke-miterlimit:10;}
	.st3{fill:#FFFFFF;stroke:#000000;stroke-miterlimit:10;}
</style>
<path id="Blackoutterdisk" class="st0" d="M0,239.7c0-11.8,0-23.7,0-35.5c1-7.5,0.8-15.1,2.2-22.6c6-31,17.5-59.6,35.3-85.7
	c8.1-11.8,17-23,27.3-32.9c34.9-33.5,75.9-54.8,124-61.8c5.1-0.7,10.3-0.3,15.4-1.2c11.2,0,22.5,0,33.7,0c3,1.1,6.3,0.5,9.4,0.7
	c21.4,1.4,41.6,7.7,61.3,15.8c25.9,10.6,49,25.9,68.7,45.7c35.4,35.6,57.7,78.2,64.8,128.1c2.3,16,1.4,32.2,1,48.3
	c-0.4,16.6-3.9,32.6-8.6,48.3c-5.3,17.8-12.9,34.5-22.5,50.4c-9.6,15.7-20.7,30.2-33.9,43c-35.2,34.1-77.1,55.2-125.8,61.9
	c-16,2.2-32.2,1.5-48.3,0.9c-27.9-0.9-53.9-9-78.9-20.7c-19.3-9.1-36.7-21-52.6-35.2c-17.2-15.3-31.4-32.9-43-52.7
	c-14.6-24.9-24.2-51.6-28.2-80.2C0.5,249.4,0.9,244.5,0,239.7z"/>
<path id="thinring" class="st1" d="M46.9,231.4c0-9.3,0-18.7,0-28c0.8-5.9,0.6-11.9,1.8-17.9c4.7-24.4,13.8-47,27.8-67.6
	c6.4-9.3,13.4-18.1,21.5-25.9c27.5-26.4,59.9-43.2,97.8-48.7c4-0.6,8.1-0.2,12.1-0.9c8.9,0,17.7,0,26.6,0c2.4,0.9,4.9,0.4,7.4,0.5
	c16.9,1.1,32.8,6.1,48.3,12.4c20.5,8.4,38.7,20.4,54.2,36c27.9,28,45.5,61.6,51.1,101c1.8,12.6,1.1,25.4,0.8,38.1
	c-0.3,13.1-3.1,25.7-6.8,38.1c-4.2,14-10.1,27.2-17.8,39.7c-7.6,12.4-16.3,23.8-26.7,33.9c-27.8,26.9-60.8,43.5-99.2,48.8
	c-12.6,1.7-25.4,1.2-38.1,0.7c-22-0.7-42.5-7.1-62.2-16.4c-15.2-7.2-28.9-16.6-41.5-27.8c-13.5-12.1-24.8-26-33.9-41.6
	c-11.5-19.6-19.1-40.7-22.3-63.3C47.3,239.1,47.6,235.2,46.9,231.4z"/>
<path id="GreyInnerDisk" class="st2" d="M82.9,228.5c0-7.4,0-14.8,0-22.2c0.6-4.7,0.5-9.5,1.4-14.2c3.8-19.4,10.9-37.3,22.1-53.7
	c5.1-7.4,10.6-14.4,17.1-20.6c21.8-21,47.5-34.3,77.7-38.7c3.2-0.5,6.4-0.2,9.6-0.7c7,0,14.1,0,21.1,0c1.9,0.7,3.9,0.3,5.9,0.4
	c13.4,0.9,26,4.8,38.4,9.9c16.2,6.7,30.7,16.2,43,28.6c22.2,22.3,36.1,49,40.6,80.2c1.4,10,0.9,20.1,0.6,30.2
	c-0.2,10.4-2.4,20.4-5.4,30.3c-3.3,11.1-8.1,21.6-14.1,31.6c-6,9.8-13,18.9-21.2,26.9c-22.1,21.4-48.3,34.6-78.8,38.8
	c-10,1.4-20.1,0.9-30.3,0.6c-17.5-0.6-33.8-5.6-49.4-13c-12.1-5.7-23-13.2-33-22.1c-10.7-9.6-19.7-20.6-26.9-33
	c-9.1-15.6-15.2-32.3-17.7-50.2C83.2,234.6,83.5,231.5,82.9,228.5z"/>
<g id="Flute">
	<path id="FluteBody" d="M317.9,301.2c-4,3.9-8.4,8.1-12.3,12C254.8,262.4,204,211.5,153.4,161c3.9-3.9,8.2-8.4,12-12.2
		C216,199.3,266.9,250.2,317.9,301.2z"/>
	<path id="MouthPeice" d="M125.7,133.1c4.1-3.8,8.4-7.9,12.4-11.6c7.1,7.3,14.4,14.7,21.8,22.4c-3.5,3.5-7.9,7.7-11.9,11.7
		C140.6,148.2,133.4,140.9,125.7,133.1z"/>
	<circle id="Circle7" class="st3" cx="289.1" cy="284" r="3.7"/>
	<circle id="Circle6" class="st3" cx="275.7" cy="270.6" r="3.7"/>
	<circle id="Circle5" class="st3" cx="261.3" cy="256.1" r="3.7"/>
	<circle id="Circle4" class="st3" cx="247.7" cy="242.5" r="3.7"/>
	<circle id="Circle3" class="st3" cx="232.8" cy="227.6" r="3.7"/>
	<circle id="Circle2" class="st3" cx="217.4" cy="212.9" r="3.7"/>
	<circle id="Circle1" class="st3" cx="202.2" cy="197.7" r="3.7"/>
</g>
</svg>
