<?xml version="1.0" encoding="utf-8"?>
<!-- Generator: Adobe Illustrator 23.0.3, SVG Export Plug-In . SVG Version: 6.00 Build 0)  -->
<svg version="1.1" id="Disk_xilaphone" xmlns="http://www.w3.org/2000/svg" xmlns:xlink="http://www.w3.org/1999/xlink" x="0px"
	 y="0px" viewBox="0 0 443.6 443.7" style="enable-background:new 0 0 443.6 443.7;" xml:space="preserve">
<style type="text/css">
	.st0{fill:#010101;}
	.st1{fill:none;stroke:#6D6E71;stroke-width:5;stroke-miterlimit:10;}
	.st2{fill:#999999;stroke:#6D6E71;stroke-width:5;stroke-miterlimit:10;}
	.st3{fill:#FFFFFF;}
</style>
<path id="Blackoutterdisk" class="st0" d="M0,239.7c0-11.8,0-23.7,0-35.5c1-7.5,0.8-15.1,2.2-22.6c6-31,17.5-59.6,35.3-85.7
	c8.1-11.8,17-23,27.3-32.9c34.9-33.5,75.9-54.8,124-61.8c5.1-0.7,10.3-0.3,15.4-1.2c11.2,0,22.5,0,33.7,0c3,1.1,6.3,0.5,9.4,0.7
	c21.4,1.4,41.6,7.7,61.3,15.8c25.9,10.6,49,25.9,68.7,45.7c35.4,35.6,57.7,78.2,64.8,128.1c2.3,16,1.4,32.2,1,48.3
	c-0.4,16.6-3.9,32.6-8.6,48.3c-5.3,17.8-12.9,34.5-22.5,50.4c-9.6,15.7-20.7,30.2-33.9,43c-35.2,34.1-77.1,55.2-125.8,61.9
	c-16,2.2-32.2,1.5-48.3,0.9c-27.9-0.9-53.9-9-78.9-20.7c-19.3-9.1-36.7-21-52.6-35.2c-17.2-15.3-31.4-32.9-43-52.7
	c-14.6-24.9-24.2-51.6-28.2-80.2C0.5,249.4,0.9,244.5,0,239.7z"/>
<path id="thinring" class="st1" d="M46.9,231.4c0-9.3,0-18.7,0-28c0.8-5.9,0.6-11.9,1.8-17.9c4.7-24.4,13.8-47,27.8-67.6
	c6.4-9.3,13.4-18.1,21.5-25.9c27.5-26.4,59.9-43.2,97.8-48.7c4-0.6,8.1-0.2,12.1-0.9c8.9,0,17.7,0,26.6,0c2.4,0.9,4.9,0.4,7.4,0.5
	c16.9,1.1,32.8,6.1,48.3,12.4c20.5,8.4,38.7,20.4,54.2,36c27.9,28,45.5,61.6,51.1,101c1.8,12.6,1.1,25.4,0.8,38.1
	c-0.3,13.1-3.1,25.7-6.8,38.1c-4.2,14-10.1,27.2-17.8,39.7c-7.6,12.4-16.3,23.8-26.7,33.9c-27.8,26.9-60.8,43.5-99.2,48.8
	c-12.6,1.7-25.4,1.2-38.1,0.7c-22-0.7-42.5-7.1-62.2-16.4c-15.2-7.2-28.9-16.6-41.5-27.8c-13.5-12.1-24.8-26-33.9-41.6
	c-11.5-19.6-19.1-40.7-22.3-63.3C47.3,239.1,47.6,235.2,46.9,231.4z"/>
<path id="GreyInnerDisk" class="st2" d="M82.9,228.5c0-7.4,0-14.8,0-22.2c0.6-4.7,0.5-9.5,1.4-14.2c3.8-19.4,10.9-37.3,22.1-53.7
	c5.1-7.4,10.6-14.4,17.1-20.6c21.8-21,47.5-34.3,77.7-38.7c3.2-0.5,6.4-0.2,9.6-0.7c7,0,14.1,0,21.1,0c1.9,0.7,3.9,0.3,5.9,0.4
	c13.4,0.9,26,4.8,38.4,9.9c16.2,6.7,30.7,16.2,43,28.6c22.2,22.3,36.1,49,40.6,80.2c1.4,10,0.9,20.1,0.6,30.2
	c-0.2,10.4-2.4,20.4-5.4,30.3c-3.3,11.1-8.1,21.6-14.1,31.6c-6,9.8-13,18.9-21.2,26.9c-22.1,21.4-48.3,34.6-78.8,38.8
	c-10,1.4-20.1,0.9-30.3,0.6c-17.5-0.6-33.8-5.6-49.4-13c-12.1-5.7-23-13.2-33-22.1c-10.7-9.6-19.7-20.6-26.9-33
	c-9.1-15.6-15.2-32.3-17.7-50.2C83.2,234.6,83.5,231.5,82.9,228.5z"/>
<g id="Xilophone">
	<path id="_x31_stkey" class="st3" d="M126,197.4c0-20.7,0-41.3,0-62c0-7.4,2-9.4,9.6-9.4c5.4,0,10.7,0,16.1,0
		c5.1,0,7.7,2.7,7.7,7.8c0,39.5,0.1,79,0,118.5c0,7.9-9.2,16.8-16.9,16.8c-16.4,0-16.4,0-16.4-16.3C126,234.3,126,215.9,126,197.4z
		 M142.6,133.7c-2.1,3-4.5,4.8-4.3,6.4c0.1,1.7,2.7,3.2,4.1,4.8c1.6-1.6,4.2-3.1,4.6-5C147.4,138.7,144.8,136.7,142.6,133.7z
		 M142.9,261.4c2.1-3,4.4-4.9,4.2-6.5c-0.2-1.7-2.7-3.1-4.3-4.7c-1.6,1.7-4.1,3.2-4.5,5.1C138,256.6,140.6,258.5,142.9,261.4z"/>
	<path id="_x35_thkey" class="st3" d="M321.6,211.7c0,16.1,0,32.2,0,48.2c0,7-2.2,9.1-9.3,9.1c-0.8,0-1.6,0.1-2.4,0
		c-4.4-0.5-10.4,0.6-12.8-1.9c-5.3-5.2-9.3-11.5-9.1-20.3c0.7-27.6,0.2-55.2,0.3-82.8c0-7.6,2-9.5,9.5-9.5c5,0,9.9,0,14.9,0
		c6.7,0.1,9,2.2,9,8.8C321.6,179.6,321.6,195.7,321.6,211.7z M311.5,169.1c-2.9-2.2-4.6-4.7-6.3-4.6c-1.7,0.1-3.3,2.5-5,3.9
		c1.6,1.7,2.9,4.3,4.8,4.8C306.4,173.7,308.5,171.2,311.5,169.1z M311.5,254.8c-2.9-2.2-4.8-4.5-6.4-4.4c-1.7,0.1-3.2,2.6-4.9,4.1
		c1.6,1.7,3,4.3,4.9,4.7C306.5,259.5,308.5,257,311.5,254.8z"/>
	<path id="_x33_rdkey" class="st3" d="M240.5,170.1c0,7.5,0.2,15.1-0.1,22.6c-0.1,1.8-1.6,4.3-3.2,5.3c-15.5,9.4-15.4,28.8,0.4,38.3
		c1.5,0.9,2.8,3.2,2.9,4.9c0.3,6.7,0.2,13.5,0.1,20.3c0,5.1-2.7,7.7-7.7,7.7c-6,0-11.9,0-17.9,0c-5.1,0-7.7-2.6-7.7-7.7
		c0-3.6,0.1-7.2,0-10.7c-0.2-7.2-0.3-13,7.6-18.2c11.6-7.7,9.1-26.4-3.4-33.6c-3.2-1.8-4.4-3.7-4.3-7.3c0.2-14.1,0.1-28.2,0.1-42.3
		c0-6.7,2.2-8.8,8.9-8.9c5.6-0.1,11.1,0,16.7,0c5.1,0,7.7,2.7,7.7,7.7C240.5,155.4,240.5,162.8,240.5,170.1z M230.4,154.7
		c-2.9-2.2-4.7-4.6-6.3-4.5c-1.7,0.1-3.3,2.6-4.9,4c1.6,1.7,3,4.3,4.8,4.8C225.3,159.3,227.4,156.8,230.4,154.7z M223.7,261.4
		c2.2-2.9,4.8-4.9,4.5-6.3c-0.4-1.9-3-3.3-4.6-5c-1.5,1.6-4,3.1-4.2,4.8C219.3,256.6,221.6,258.4,223.7,261.4z"/>
	<path id="_x32_ndkey" class="st3" d="M199.9,195.3c-16.7,4.3-21.2,11-19.8,28.1c0.1,0.9,0.1,2.1-0.4,2.8c-3.9,5.8-8,11.6-13.2,17
		c0-1.7,0-3.4,0-5.1c0-31.6,0-63.1,0-94.7c0-8.4,1.8-10.2,10-10.2c5.2,0,10.3,0,15.5,0c5.1,0,7.8,2.5,7.8,7.6
		C199.9,158.9,199.9,176.9,199.9,195.3z M189.8,147.8c-2.8-2.3-4.5-4.7-6.2-4.7c-1.7,0-3.4,2.5-5.1,3.9c1.5,1.7,2.8,4.4,4.7,4.9
		C184.6,152.2,186.7,149.8,189.8,147.8z"/>
	<path id="_x34_thkey" class="st3" d="M279.9,243.4c-3.9-5.5-7.9-11.1-11.7-16.7c-0.6-0.9-0.8-2.2-0.7-3.3
		c1.5-16.9-3.1-23.7-19.7-28.1c0-13.7-0.3-27.5,0.3-41.4c0.1-2.2,3.9-5.8,6.4-6.1c6.6-0.8,13.5-0.9,20.2,0c2.4,0.3,6.2,4.1,6.2,6.3
		c0.4,29.6,0.2,59.1,0.1,88.7C280.8,242.9,280.5,243,279.9,243.4z M264.7,155.2c-2.3,2.8-4.8,4.5-4.7,6.1c0,1.7,2.4,3.4,3.8,5.1
		c1.8-1.5,4.4-2.8,5-4.6C269.1,160.5,266.7,158.3,264.7,155.2z"/>
	<path id="Rightstick" d="M261.4,216.9c0,0.2,0.1,0.4,0,0.6c-4.7,8.8,1.9,14.3,6.1,20.4c15,21.5,30,42.9,45,64.4
		c1,1.5,2.6,2.9,2.7,4.5c0.2,1.9-0.4,4.7-1.7,5.6c-1.3,0.9-4.1,0.4-5.8-0.5c-1.4-0.7-2.3-2.7-3.3-4.1
		c-16.7-23.9-33.5-47.7-50.2-71.7c-2.1-3-3.8-5-8.4-4.9c-7.7,0.3-13.8-7-13.5-14.5c0.3-7.7,7.3-14.4,14.9-14.1
		C254.9,202.9,261.3,209.4,261.4,216.9z"/>
	<path id="Leftstick" d="M200.6,202.6c7.4,0,14.1,6.4,14.5,13.9c0.4,7.4-5.6,14.8-13.3,14.7c-4.7-0.1-6.6,2-8.8,5.2
		c-16.7,23.9-33.4,47.8-50.2,71.7c-0.8,1.1-1.4,2.8-2.5,3.3c-2,0.8-5.3,2-6.1,1.1c-1.4-1.4-1.5-4.3-1.5-6.6c0-1.1,1.4-2.3,2.2-3.5
		c16.6-23.7,33.2-47.5,49.9-71.2c2.4-3.4,3.5-6.2,2.1-10.7C184.1,211.6,191.3,202.6,200.6,202.6z"/>
	<path id="Bottom2nd" class="st3" d="M178.7,269.1c7.2-10.2,13.6-19.4,21-30c0,9.4,0.4,17.3-0.3,25.1c-0.2,1.8-4,4.2-6.5,4.7
		C188.7,269.7,184.3,269.1,178.7,269.1z"/>
	<path id="Bottom4th" class="st3" d="M268.9,269.1c-5.7,0-10.2,0.7-14.3-0.3c-2.6-0.6-6.3-3.6-6.6-5.9c-0.8-7.3-0.3-14.8-0.3-24
		C255.2,249.6,261.7,258.9,268.9,269.1z"/>
</g>
</svg>
