<?xml version="1.0" encoding="utf-8"?>
<!-- Generator: Adobe Illustrator 23.0.4, SVG Export Plug-In . SVG Version: 6.00 Build 0)  -->
<svg version="1.1" id="Alien" xmlns="http://www.w3.org/2000/svg" xmlns:xlink="http://www.w3.org/1999/xlink" x="0px" y="0px"
	 viewBox="0 0 110.7 133.7" style="enable-background:new 0 0 110.7 133.7;" xml:space="preserve">
<style type="text/css">
	.st0{fill:#020000;}
	.st1{fill:#F9F7F8;}
</style>
<path id="Alien_Head" class="st0" d="M50,0h10.7c2.5,0.3,5,0.3,7.5,0.7c9.9,1.8,19,5.3,26.7,11.8c8.4,6.8,13.8,16.5,15.3,27.2
	c1.3,8.1-0.1,15.8-2.5,23.5c-4,12.7-10,24.5-17,35.8c-4.1,6.8-8.7,13.2-13.8,19.3c-4.1,4.8-8.3,9.4-13.7,12.8
	c-1.8,1.4-4,2.2-6.2,2.6h-3.4c-3.3-0.3-5.8-2.2-8.3-4c-4.4-3.4-8.3-7.2-11.8-11.6C26,109,19.5,99.2,14,88.8C10,81.5,6.7,74,3.9,66.2
	C2,60.7,0.4,55.1,0.1,49.3c-0.6-12,2.6-22.8,10.7-31.9C19.3,7.9,30.2,2.9,42.5,0.7C45,0.2,47.5,0.3,50,0z"/>
<path id="Left_Eye" class="st1" d="M42.8,96.2c-9.4-0.3-16.8-4.3-22.3-11.8c-3.5-4.5-5.9-9.9-7-15.5c-0.6-3.3,0.2-4.6,3.5-4.3
	c12.6,1.2,22.5,6.8,28.5,18.4c1.7,3.2,2.6,6.7,2.7,10.3c0,2-0.2,2.2-2.1,2.6C45,96.1,43.9,96.2,42.8,96.2z"/>
<path id="Right_Eye" class="st1" d="M65.4,95.6h-1c-1.3,0.1-1.8-0.6-2-1.8c-0.4-3.1-0.1-6.2,0.9-9.1c2.4-8,8.1-13.2,15.5-16.5
	c4.4-2,9.2-3.2,14-3.5c0.3,0,0.6,0,0.9,0c3.4,0.1,4.2,1,3.5,4.5c-1.1,4.6-3.1,8.9-6.1,12.5C85,89.6,76.8,94,67,95.6
	C66.5,95.6,65.9,95.6,65.4,95.6z"/>
</svg>
