<?xml version="1.0" encoding="utf-8"?>
<!-- Generator: Adobe Illustrator 23.0.4, SVG Export Plug-In . SVG Version: 6.00 Build 0)  -->
<svg version="1.1" id="Bells" xmlns="http://www.w3.org/2000/svg" xmlns:xlink="http://www.w3.org/1999/xlink" x="0px" y="0px"
	 viewBox="0 0 139.8 125.3" style="enable-background:new 0 0 139.8 125.3;" xml:space="preserve">
<style type="text/css">
	.st0{fill:#FCFCFC;}
</style>
<path id="Top_BElls" d="M130,68c-1.7,1.2-3.4,2.6-5.3,3.8c-8,5.1-16.6,9.2-25.7,12c-0.8,0.3-1.1,0.1-1.5-0.6
	c-3.6-5.7-5.8-12.2-6.3-18.9c-0.7-6.9,0.2-13.7,1.4-20.5c2-10.7-1.4-19.9-9.2-27.4c-0.2-0.1-0.3-0.3-0.5-0.4
	c-0.9,1.9-1.9,3.8-2.8,5.8c0.7,0.9,1.6,1.8,2.3,2.9c4.2,6,5.3,12.6,3.8,19.9c-2.7,12.5-2.2,24.9,3.1,36.7c1.4,2.7,2.9,5.2,4.6,7.7
	c0.3,0.5,0.7,1.1,1.1,1.5c-18.7,6-70.2-8.4-83.8-23.4c0.1-0.1,0.2-0.2,0.3-0.3c10.6-4.6,18-12.6,23.5-22.5c2.3-4.1,4.2-8.5,5.6-13
	C43,23.7,48.2,18.7,55.8,16c0.4-0.1,0.8-0.3,1.2-0.4c-0.8-4.3,0.6-8.7,3.7-11.8c2.5-2.6,5.9-4,9.5-3.9c7,0.1,13.9,6.2,12.7,15.6
	c4.3,1.2,8.2,3.5,11.3,6.8c2.6,3,4.5,6.4,5.6,10.2c4,12.1,10.6,22.5,21.2,30C123.6,64.7,126.9,66.2,130,68z M62.3,14.9
	c4.6-0.2,9.2,1,13.2,3.4c2.4-2.6,2.8-6.5,0.8-9.5c-2.4-3.5-7.2-4.5-10.8-2C62.9,8.6,61.7,11.8,62.3,14.9L62.3,14.9z"/>
<g id="BellRim">
	<path id="FrontBackbell" d="M139.7,83.4c-5.9,7.7-14,12.4-22.6,16.4c-4.6,2.1-9.4,3.8-14.4,5.8c0.6-6,0.9-11.6-1.5-17.1
		c11.9-4,23.1-9.3,33-17.3c2.1,3.1,3.8,6.4,5,9.9c0.2,0.4,0.4,0.8,0.5,1.2C139.7,82.7,139.7,83.1,139.7,83.4z"/>
	<path id="FrontBell" d="M96.7,95.8c0.3,4.2,0,8.5-1,12.6c-0.2,0.5-0.6,0.8-1.1,1c-4.1,1.6-8.4,2.6-12.8,2.8
		c-16.5,1-32.2-2.6-47.7-7.7c-9.1-3.1-17.8-6.9-25.5-12.7c-2.8-2.3-5.5-4.8-8-7.5c-0.6-0.6-0.7-1.4-0.4-2.1c1.4-4.3,3.4-8.4,6.1-12
		c12.4,10.9,27,17.2,42.6,21.5S80.3,98.3,96.7,95.8z"/>
</g>
<g id="BottomBells">
	<path id="Bottom_Left_bell" class="st0" d="M56,115.9c-1.2,4.2-4.4,7.5-8.6,8.7c-4.7,1.6-9.9,0.3-13.2-3.4
		c-3.2-3.1-4.4-7.7-3.3-12.1C39.2,111.4,47.4,113.7,56,115.9z"/>
	<path id="Bottom_Rightbell" class="st0" d="M83.8,115.9c8.4-2.2,16.7-4.5,25.1-6.7c1.7,7-2.7,14-9.6,15.7c-2.2,0.5-4.4,0.5-6.6-0.1
		C88.1,123.4,84.3,119.5,83.8,115.9z"/>
</g>
</svg>
