<?xml version="1.0" encoding="utf-8"?>
<!-- Generator: Adobe Illustrator 23.0.4, SVG Export Plug-In . SVG Version: 6.00 Build 0)  -->
<svg version="1.1" id="Layer_1" xmlns="http://www.w3.org/2000/svg" xmlns:xlink="http://www.w3.org/1999/xlink" x="0px" y="0px"
	 viewBox="0 0 130.1 98.1" style="enable-background:new 0 0 130.1 98.1;" xml:space="preserve">
<style type="text/css">
	.st0{fill:#F9F7F8;}
</style>
<title>Choir</title>
<g>
	<g id="Layer_1-2">
		<g id="Choir">
			<g id="Bodies">
				<path id="Body3" d="M54.2,60.6H46c-0.1-0.9-0.2-1.8-0.3-2.7c0-9,0-18,0.1-27c0.1-6.6,3.8-10.5,10.4-10.6
					c6.2-0.1,12.3-0.1,18.5,0c6.4,0.1,10.2,4,10.3,10.3c0.1,9.8,0,19.7,0,29.8h-8.2V98H54.2V60.6z M75.3,42V29.4
					c-2.4,1-4.8,2.2-7.2,3.4c-1.9,1.2-4.3,1.2-6.2,0c-2.3-1.3-4.7-2.2-7.2-3.4v12.7c5.8-2.4,8.5-0.7,8,5.5h4.8
					C66.8,41.4,69.3,39.8,75.3,42z"/>
				<path id="Body2" d="M130.1,60.5H122v37.6H99.3V60.7h-8.5V42.8c0-4.2-0.1-8.3,0.1-12.5c0.1-5.9,3.8-9.8,9.6-10
					c6.7-0.2,13.5-0.2,20.2,0c5.3,0.1,9.3,3.8,9.4,8.8C130.2,39.5,130.1,49.8,130.1,60.5z M113.6,47.6c-1.7-3-1.2-5.1,1.1-5.9
					c1.8-0.6,4-0.1,5.9-0.1V29.4c-2.7,1.3-5.1,2.3-7.3,3.5c-1.7,1.1-3.9,1.1-5.6,0c-2.3-1.3-4.8-2.3-7.5-3.6v12.5
					c6.2-1.9,8.8-0.1,7.6,5.6C109.7,47.6,111.3,47.6,113.6,47.6z"/>
				<path id="Body1" d="M39.2,60.7h-8v37.4H8.8V60.8H0V30.9c0.1-6.3,4-10.4,10.2-10.5s12.8-0.1,19.2,0c5.8,0.1,10,4,10.1,9.6
					c0.2,9.8,0.1,19.5,0.1,29.3C39.5,59.8,39.3,60.3,39.2,60.7z M30.2,41.2V29.4c-1.7,0.7-3.4,1.5-5,2.4c-3.5,2.4-6.9,2.6-10.4,0.1
					c-1.7-0.9-3.4-1.7-5.2-2.4V42c6.3-2.1,8.6-0.6,8,5.5h4c0.8-2.5,1-4.9,1.9-5.4C25.3,41.3,27.8,41.5,30.2,41.2L30.2,41.2z"/>
				<path id="Head3" d="M119.2,8.9c0,4.8-3.9,8.7-8.7,8.7c-4.8,0-8.7-3.9-8.7-8.7c0-0.1,0-0.3,0-0.4c0.2-4.8,4.3-8.5,9.1-8.3
					C115.5,0.4,119.2,4.2,119.2,8.9z"/>
				<path id="Head2" d="M74.1,8.6c0,4.8-3.8,8.7-8.6,8.8c-4.7,0-8.5-3.6-8.8-8.3c-0.2-4.8,3.5-8.9,8.3-9.1c4.8-0.2,8.9,3.5,9.1,8.3
					C74,8.4,74,8.5,74.1,8.6z"/>
				<path id="Head1" d="M28.5,8.7c0,4.8-3.8,8.7-8.6,8.8c0,0,0,0-0.1,0c-4.7,0-8.6-3.8-8.6-8.6c0-0.1,0-0.1,0-0.2
					c0-4.8,3.9-8.7,8.7-8.7C24.6,0,28.5,3.9,28.5,8.7z"/>
			</g>
			<g id="BOOKS">
				<path id="Book3" class="st0" d="M113.6,47.6h-5.7c1.2-5.8-1.4-7.5-7.6-5.6V29.4c2.7,1.3,5.2,2.3,7.5,3.6c1.7,1.1,3.9,1.1,5.6,0
					c2.2-1.3,4.7-2.2,7.3-3.5v12.1c-2,0-4.1-0.5-5.9,0.1C112.4,42.5,111.9,44.6,113.6,47.6z"/>
				<path id="Book2" class="st0" d="M75.3,42c-6.1-2.2-8.6-0.6-7.8,5.6h-4.9c0.6-6.1-2.2-7.9-8-5.5V29.4c2.5,1.1,4.9,2.1,7.2,3.4
					c1.9,1.2,4.3,1.2,6.2,0c2.2-1.3,4.6-2.2,7.2-3.4V42z"/>
				<path id="Book1" class="st0" d="M30.2,41.2c-2.4,0.3-4.9,0.1-6.8,1c-1,0.5-1.1,2.9-1.9,5.4h-4c0.6-6.2-1.7-7.6-8-5.6V29.4
					c1.8,0.6,3.5,1.5,5.2,2.4c3.6,2.5,6.9,2.4,10.4-0.1c1.6-0.9,3.3-1.7,5-2.4V41.2z"/>
			</g>
		</g>
	</g>
</g>
</svg>
