<?xml version="1.0" encoding="utf-8"?>
<!-- Generator: Adobe Illustrator 23.0.4, SVG Export Plug-In . SVG Version: 6.00 Build 0)  -->
<svg version="1.1" id="Layer_1" xmlns="http://www.w3.org/2000/svg" xmlns:xlink="http://www.w3.org/1999/xlink" x="0px" y="0px"
	 viewBox="0 0 144.3 81.1" style="enable-background:new 0 0 144.3 81.1;" xml:space="preserve">
<style type="text/css">
	.st0{fill:#FFFFFF;}
	.st1{fill:#F9F9F9;}
</style>
<title>Cloud</title>
<g>
	<g id="Layer_1-2">
		<g id="Cloud">
			<path id="CloudStroke" class="st0" d="M74,81.1H27.2c-8.1,0-15.3-2.7-21-8.7C-2.3,63.6-2,49.6,6.8,41.2c0.3-0.3,0.5-0.5,0.8-0.8
				c2.8-2.5,6-4.4,9.5-5.6c0.6-0.1,1-0.6,1-1.2c0.7-16,12.1-29.5,27.8-32.7c12.7-2.6,23.9,0.4,33.5,9.2c0.9,0.8,1.8,1.7,2.5,2.7
				c0.3,0.5,1,0.7,1.5,0.4c11.5-2.8,21.5-0.3,29.8,8.3c2.9,3.1,5,6.8,6,10.9c0.2,0.7,0.4,0.8,1.1,0.8c9.8-0.4,17,4.1,21.2,12.7
				c4.4,8.9,3.7,17.8-2.1,25.9c-4.6,6.4-11,9.5-19,9.3c-3.5-0.1-7.1,0-10.6,0C97.8,81.1,85.9,81.1,74,81.1L74,81.1z M80.4,20.6
				c-0.9-1.2-1.7-2.5-2.7-3.6C68.3,5.7,52.2,2.6,39.3,9.6C29.9,14.8,24.5,22.8,24,33.8c-0.1,1.7,0,3.5,0,5.3
				c-0.5,0.1-1.2,0.3-1.8,0.4c-3.3,0.7-6.5,2.1-9.2,4.1c-9.2,7-9.4,19.4-0.4,26.6c4.2,3.4,9.5,5.1,14.9,5c22.8,0,45.6,0,68.4,0
				c8.5,0,17.1,0,25.6,0c3.5,0,7-1.2,9.7-3.4c7.1-5.8,9-15.9,4.6-23.9c-3.6-6.6-11-10.5-18.9-8.1c-0.8,0.2-1.6,0.4-2.6,0.6
				c-0.2-8.6-3.8-15.2-11.3-19.4C95.7,16.9,88.1,17.1,80.4,20.6L80.4,20.6z"/>
			<path id="InsideCloud" d="M80.4,20.6c7.7-3.5,15.3-3.7,22.7,0.4s11,10.8,11.3,19.4c1-0.3,1.8-0.4,2.6-0.6
				c7.9-2.4,15.3,1.5,18.9,8.2c4.4,8,2.5,18.1-4.6,23.9c-2.8,2.2-6.2,3.4-9.7,3.4H95.9c-22.8,0-45.6,0-68.4,0
				c-5.4,0.1-10.7-1.6-14.9-5C3.6,63,3.8,50.5,13,43.6c2.7-2.1,5.9-3.5,9.2-4.1c0.6-0.2,1.3-0.3,1.8-0.4c0-1.8,0-3.5,0-5.3
				c0.5-10.9,5.9-18.9,15.3-24.1c13-7,29-3.9,38.4,7.4C78.7,18.1,79.5,19.3,80.4,20.6z M42.6,12.4c-8.4,5.3-14.8,18.4-12.4,25.3
				c0.8-0.1,1.5-0.2,2.2-0.4c0.1,0,0.3-0.1,0.4-0.2c-0.5-9.6,4-16.8,11.5-22.5C43.7,13.9,43.2,13.2,42.6,12.4z"/>
			<path id="Curve" class="st1" d="M42.6,12.4c0.5,0.8,1.1,1.5,1.7,2.3c-7.5,5.6-12,12.8-11.5,22.5c-0.1,0-0.3,0.1-0.4,0.2
				c-0.8,0.1-1.5,0.3-2.2,0.4C27.9,30.8,34.3,17.7,42.6,12.4z"/>
		</g>
	</g>
</g>
</svg>
