<svg id="Camada_1" data-name="Camada 1" xmlns="http://www.w3.org/2000/svg" viewBox="0 0 143.74 143.77"><defs><style>.cls-1{fill:#010202;}.cls-2{fill:none;}.cls-2,.cls-3{stroke:#6e6f72;stroke-miterlimit:10;stroke-width:5px;}.cls-3{fill:#9a9999;}</style></defs><title>DiscSVG</title><path id="Blackoutterdisk" class="cls-1" d="M0,77.67V66.17c.32-2.43.26-4.9.71-7.33A73.51,73.51,0,0,1,12.15,31.07,68.54,68.54,0,0,1,21,20.41C32.31,9.56,45.59,2.66,61.18.39c1.65-.23,3.33-.1,5-.39H77.09a10.69,10.69,0,0,0,3,.23C87.07.68,93.61,2.72,100,5.35a67,67,0,0,1,22.26,14.8c11.47,11.54,18.69,25.34,21,41.51.75,5.19.46,10.44.33,15.65A59.54,59.54,0,0,1,140.79,93a72.05,72.05,0,0,1-18.27,30.27,71.39,71.39,0,0,1-40.77,20.06,90.85,90.85,0,0,1-15.65.29c-9-.29-17.46-2.92-25.56-6.71a70.63,70.63,0,0,1-17-11.41A72,72,0,0,1,.42,82.4C.16,80.81.29,79.23,0,77.67Z"/><path id="thinring" class="cls-2" d="M15.2,75V65.91c.26-1.91.19-3.86.58-5.8a58,58,0,0,1,9-21.91,53.91,53.91,0,0,1,7-8.39A56.63,56.63,0,0,1,63.45,14c1.29-.19,2.62-.06,3.92-.29H76a7.35,7.35,0,0,0,2.39.16,50.3,50.3,0,0,1,15.65,4A52.77,52.77,0,0,1,111.6,29.58a56.76,56.76,0,0,1,16.55,32.73,73.77,73.77,0,0,1,.26,12.35A46.5,46.5,0,0,1,126.21,87a53.68,53.68,0,0,1-5.77,12.87,56.52,56.52,0,0,1-40.79,26.79,71.72,71.72,0,0,1-12.35.23,50.81,50.81,0,0,1-20.15-5.31,56.84,56.84,0,0,1-13.45-9,56.93,56.93,0,0,1-18.21-34C15.33,77.48,15.42,76.21,15.2,75Z"/><path id="GreyInnerDisk" class="cls-3" d="M26.86,74V66.85c.2-1.53.16-3.08.46-4.6a46,46,0,0,1,7.16-17.4A41.74,41.74,0,0,1,40,38.17,44.92,44.92,0,0,1,65.2,25.63c1-.16,2.07-.06,3.11-.23h6.83a6.12,6.12,0,0,0,1.91.13A39.91,39.91,0,0,1,89.5,28.74,42,42,0,0,1,103.43,38a45.28,45.28,0,0,1,13.16,26,58,58,0,0,1,.19,9.78A36.07,36.07,0,0,1,115,83.6a45,45,0,0,1-37,31.53,58.44,58.44,0,0,1-9.82.19,40.28,40.28,0,0,1-16-4.21A44.94,44.94,0,0,1,41.54,104,45.14,45.14,0,0,1,27.09,77C27,76,27.06,75,26.86,74Z"/></svg>