<?xml version="1.0" encoding="utf-8"?>
<!-- Generator: Adobe Illustrator 23.0.4, SVG Export Plug-In . SVG Version: 6.00 Build 0)  -->
<svg version="1.1" id="Layer_1" xmlns="http://www.w3.org/2000/svg" xmlns:xlink="http://www.w3.org/1999/xlink" x="0px" y="0px"
	 viewBox="0 0 116.3 111.7" style="enable-background:new 0 0 116.3 111.7;" xml:space="preserve">
<style type="text/css">
	.st0{fill:#FCFCFC;}
</style>
<title>Drums</title>
<g>
	<g id="Layer_1-2">
		<g id="Drums">
			<circle class="st0" cx="57.6" cy="77.5" r="26"/>
			<path id="KickDrum" d="M69.6,103.3c-7.4,3.3-15.8,3.3-23.2,0c-0.6,2.2-1.4,4.4-2.3,6.5c-0.4,0.9-1.8,1.2-2.8,1.8
				c-0.3-1-1.2-2.4-0.9-3c2.9-5.1,1-8.2-3-12.1c-8.5-8.3-9.6-21.7-3.9-32C41,50.9,57.9,46,71.4,53.4c7.7,4.2,12.9,11.7,14.2,20.4
				c1.5,10.6-2.1,19.2-10.1,25.9c-1.7,1.4-2.1,2.5-1.2,4.5c0.7,1.4,1.2,2.9,1.5,4.5c0.1,1-0.6,2-1,3c-1-0.6-2.3-1-2.8-1.8
				C71,107.7,70.3,105.5,69.6,103.3z M57.9,101.6c13.2,0,23.8-10.7,23.8-23.8S71.1,53.9,57.9,53.9c-13.1,0-23.7,10.6-23.8,23.7
				C34.1,90.8,44.8,101.5,57.9,101.6z"/>
			<g id="Crashes">
				<path id="RightCrash" d="M94,19.8c-4.8,0.8-9.2,1.5-13.6,2.1c-1,0.1-2.1-0.6-3.2-0.9c0.7-1,1.1-2.4,2-3
					c4.2-2.3,8.4-4.3,12.8-6.3c1.4-0.6,2.1-1.2,2-2.8c-0.2-2.2-0.2-4.4,0-6.5c0.1-0.8,1.2-1.6,1.8-2.3c0.8,0.8,2,1.5,2.1,2.3
					c0.2,2.3,0.3,4.5,0.1,6.8c4.5-0.7,8.8-1.5,13-2c1.2-0.1,2.4,0.7,3.7,1c-0.8,1-1.5,2.4-2.5,3.1c-3.6,2.1-7.3,4-11.2,5.6
					c-2.5,1-3.2,2.2-3.1,4.7c0.2,5.9,0,11.9,0,18.1c-1.3,0.3-2.5,0.6-4,1L94,19.8z"/>
				<path id="LeftCrash" d="M22.1,27.9v12.7c-1.5-0.3-2.7-0.6-4.1-0.9c0-3.8-0.1-7.5,0.1-11.1c0-1.9-0.5-2.8-2.3-3.5
					c-3.8-1.6-7.6-3.4-11.3-5.4c-1.3-0.7-2.3-2-4.2-3.6c6.6-2.6,11.9,0.6,17.6,1.1c-0.1-1.1,0-2.2,0.3-3.2c0.4-0.8,1.4-1.4,2.2-2
					c0.6,0.7,1.6,1.3,1.7,2.1c0.2,1.5,0.2,3,0.1,4.5c3.9,1.7,7.5,3.4,11,5.1c1.4,0.7,2.8,1.5,4,2.6c0.7,0.8,1.2,1.7,1.6,2.6
					c-1,0.4-2,1.1-2.9,1C31.5,29.3,27,28.6,22.1,27.9z"/>
			</g>
			<g id="Snares">
				<path id="Left_Snare" d="M9,46.3c-1.2-0.3-2.3-0.5-3.7-0.9c0.2-1.2,0.3-2.3,0.5-4c12.8,2.5,25.4,4.9,38.7,7.4
					c-11.7,6.5-17.8,15.9-18.4,29L0,72.8c0.2-1.4,0.4-2.5,0.6-3.7h4C6.1,61.5,7.6,54,9,46.3z"/>
				<path id="Right_Snare" d="M71.5,48.8c13.4-2.5,25.8-5,38.6-7.4c0.3,1.5,0.4,2.7,0.7,3.9c-1.3,0.3-2.3,0.6-3.7,0.9
					c1.5,7.6,2.9,15.1,4.4,23l3.9-0.2c0.3,1,0.5,2.2,0.9,3.8c-8.8,1.7-17.3,3.4-26.2,5.1c-0.2-5.9-1.9-11.7-5-16.8
					C81.9,55.9,77.5,52.1,71.5,48.8z"/>
			</g>
			<g id="DrumLegs">
				<path id="RightLeg" d="M98,80.7c0,6.1-0.1,11.9,0.1,17.8c0.2,1.3,0.8,2.5,1.8,3.3c2.7,2.1,5.7,3.7,8.3,5.8
					c0.8,0.6,1.6,2.2,1.3,3c-0.7,1.8-2.2,1.2-3.5,0.3c-2.7-1.8-5.6-3.5-8.2-5.5c-1.1-1.1-2.9-1-4,0.1c-2.6,2-5.4,3.8-8.2,5.4
					c-0.9,0.5-2.2,0-3.4-0.1c0.4-1.1,0.4-2.6,1.1-3.2c2.6-2,5.3-3.8,8.2-5.5c1.7-0.7,2.7-2.5,2.5-4.3c-0.2-4.6,0-9.1,0-13.7
					C94,80.6,94,80.6,98,80.7z"/>
				<path id="LeftLeg" d="M18.1,80.7c3-0.5,4.3,0.3,4.1,3.4c-0.2,4.8-0.2,9.6,0,14.3c0.1,1.3,0.8,2.4,1.7,3.3
					c2.8,2.1,5.8,3.8,8.6,5.9c0.8,0.6,0.8,2.1,1.2,3.2c-1.1,0.1-2.5,0.6-3.4,0.1c-2.6-1.4-5.1-3.1-7.5-5c-2.1-1.7-3.7-1.5-5.7,0.1
					c-2.2,1.8-4.6,3.4-7.2,4.8c-0.9,0.5-2.3-0.1-3.5-0.2c0.4-1,0.6-2.4,1.4-3c2.5-1.9,5.2-3.7,7.9-5.3c1.6-0.8,2.6-2.5,2.3-4.3
					C18,92.2,18.1,86.4,18.1,80.7z"/>
			</g>
		</g>
	</g>
</g>
</svg>
