<?xml version="1.0" encoding="utf-8"?>
<!-- Generator: Adobe Illustrator 23.0.4, SVG Export Plug-In . SVG Version: 6.00 Build 0)  -->
<svg version="1.1" id="Layer_1" xmlns="http://www.w3.org/2000/svg" xmlns:xlink="http://www.w3.org/1999/xlink" x="0px" y="0px"
	 viewBox="0 0 104.6 104.3" style="enable-background:new 0 0 104.6 104.3;" xml:space="preserve">
<style type="text/css">
	.st0{fill:#F9F9F9;}
</style>
<title>Flute</title>
<g>
	<g id="Layer_1-2">
		<g id="Flute">
			<path id="FluteBody" d="M104.6,97.8c-2.2,2.1-4.6,4.4-6.7,6.5C70.2,76.7,42.6,49,15.1,21.5c2.1-2.1,4.5-4.6,6.5-6.6
				C49.1,42.3,76.8,70,104.6,97.8z"/>
			<path id="MouthPeice" d="M0,6.3C2.2,4.2,4.6,2,6.8,0c3.9,4,7.8,8,11.9,12.2c-1.9,1.9-4.3,4.2-6.5,6.4C8.1,14.5,4.2,10.6,0,6.3z"
				/>
			<circle id="Circle7" class="st0" cx="88.9" cy="88.4" r="2"/>
			<circle id="Circle6" class="st0" cx="81.6" cy="81.1" r="2"/>
			<circle id="Circle5" class="st0" cx="73.8" cy="73.2" r="2"/>
			<circle id="Circle4" class="st0" cx="66.4" cy="65.8" r="2"/>
			<circle id="Circle3" class="st0" cx="58.3" cy="57.7" r="2"/>
			<circle id="Circle2" class="st0" cx="49.9" cy="49.7" r="2"/>
			<circle id="Circle1" class="st0" cx="41.6" cy="41.5" r="2"/>
		</g>
	</g>
</g>
</svg>
