<?xml version="1.0" encoding="utf-8"?>
<!-- Generator: Adobe Illustrator 23.0.4, SVG Export Plug-In . SVG Version: 6.00 Build 0)  -->
<svg version="1.1" id="Piano" xmlns="http://www.w3.org/2000/svg" xmlns:xlink="http://www.w3.org/1999/xlink" x="0px" y="0px"
	 viewBox="0 0 106.9 108.1" style="enable-background:new 0 0 106.9 108.1;" xml:space="preserve">
<style type="text/css">
	.st0{fill:#F9F7F8;}
</style>
<title>Piano</title>
<path id="Outerlater" class="st0" d="M106.9,53.8v40.4c0.3,7.4-5.5,13.7-13,13.9c0,0,0,0,0,0c-0.3,0-0.6,0-0.9,0H14
	c-8.2,0-14-5.8-14-13.9v-80C0,5.7,5.7,0,14.1,0h78.1c2.1-0.1,4.2,0.3,6.1,1c5.3,2.1,8.7,7.3,8.5,13L106.9,53.8z M19.3,4.1
	c-2.2,0-4.2-0.1-6.2,0c-5,0.2-9,4.4-8.9,9.4c0,27,0,54.1,0.1,81.2c0,5,4.1,9,9.1,9.1h13.1V62.2c-1.1,0-2.1,0.1-3.1,0
	c-2.6-0.1-3.9-1.5-3.9-4L19.3,4.1L19.3,4.1z M88,4.2v54.2c0,2-0.7,3-2.6,3.5c-1,0.2-2,0.3-3,0.3c-1.1-0.1-1.3,0.3-1.3,1.3
	c0,13,0,26,0,39c0,0.4,0,0.9,0.1,1.3h13.2c0.2,0,0.4,0,0.6-0.1c4.6-0.8,7.8-4.9,7.7-9.5c0.1-3.6,0.1-7.3,0.1-11V13.8
	c0.2-4.8-3.3-9-8.2-9.5C92.4,4.2,90.2,4.1,88,4.2z M77.6,103.8V62.2h-2.8c-2.6-0.1-3.9-1.5-3.9-4V4.1c-2.6,0-5.1,0.1-7.6,0
	c-1.2,0-1.5,0.3-1.5,1.5c0.1,17.6,0,35.3,0,52.9c0,2.1-0.7,3-2.7,3.5c-1.2,0.2-2.4,0.3-3.6,0.4v41.4L77.6,103.8z M44.9,4.1h-7
	c-1.5,0-1.5,0-1.5,1.5v52.9c0,2-0.7,3-2.7,3.4c-1.2,0.2-2.5,0.3-3.7,0.4v41.3h21.8V62.3c-1.1,0-2.1,0-3,0c-2.6-0.1-4-1.5-4-4V5.8
	C44.9,5.3,44.9,4.7,44.9,4.1z"/>
<g id="Keys">
	<path id="key4" d="M88,4.2c2.2-0.2,4.4-0.1,6.6,0.1c5,0.7,8.1,4.5,8.2,9.5v69.4c0,3.6,0,7.3-0.1,11c0.2,4.6-3.1,8.7-7.7,9.5
		c-0.2,0.1-0.4,0.1-0.6,0.1H81.2c-0.1-0.4-0.1-0.9-0.1-1.3v-39c0-1,0.3-1.4,1.3-1.3c1,0.1,2,0,3-0.3c1.9-0.5,2.6-1.5,2.6-3.5L88,4.2
		L88,4.2z"/>
	<path id="key3" d="M77.6,103.8H55.5V62.4c1.2-0.1,2.4-0.2,3.7-0.4c2.1-0.4,2.7-1.4,2.7-3.5V5.6c0-1.2,0.3-1.5,1.5-1.5
		c2.4,0.1,4.9,0,7.6,0v54.1c0,2.5,1.3,3.9,3.9,4h2.8C77.6,76.1,77.6,89.9,77.6,103.8z"/>
	<path id="key2" d="M44.9,4.1v54.1c0,2.6,1.3,4,4,4h3v41.5H30V62.3c1.3,0,2.5-0.1,3.8-0.3c2-0.4,2.7-1.4,2.7-3.4v-53
		c0-1.5,0-1.5,1.5-1.5C40.2,4.1,42.4,4.1,44.9,4.1z"/>
	<path id="key1" d="M19.3,4.1v54.1c0,2.6,1.2,3.9,3.9,4h3.1v41.6H13.3c-5,0-9-4.1-9.1-9.1c0-27,0-54.1-0.1-81.2
		C4,8.5,8,4.3,13.1,4.2C15.1,4,17.1,4.1,19.3,4.1z"/>
</g>
</svg>
