<?xml version="1.0" encoding="utf-8"?>
<!-- Generator: Adobe Illustrator 23.0.4, SVG Export Plug-In . SVG Version: 6.00 Build 0)  -->
<svg version="1.1" id="Xilofone" xmlns="http://www.w3.org/2000/svg" xmlns:xlink="http://www.w3.org/1999/xlink" x="0px" y="0px"
	 viewBox="0 0 106.5 101.7" style="enable-background:new 0 0 106.5 101.7;" xml:space="preserve">
<style type="text/css">
	.st0{fill:#FCFCFC;}
</style>
<title>Xilophone</title>
<path id="_1stkey" d="M0,38.8V5.1C0,1.1,1.1,0,5.2,0H14c2.8,0,4.2,1.5,4.2,4.2c0,21.5,0,43,0,64.5c0,4.3-5,9.1-9.2,9.1
	c-9,0-9,0-9-8.8C0,58.9,0,48.9,0,38.8z M9,4.2C7.9,5.8,6.6,6.8,6.7,7.7s1.5,1.7,2.2,2.6c0.9-0.9,2.3-1.7,2.5-2.7
	C11.6,6.9,10.2,5.8,9,4.2z M9.2,73.7c1.1-1.6,2.4-2.7,2.3-3.5s-1.4-1.7-2.3-2.6c-0.9,0.9-2.2,1.7-2.4,2.8
	C6.5,71.1,7.9,72.1,9.2,73.7L9.2,73.7z"/>
<path id="_5thkey" d="M106.4,46.6v26.2c0,3.8-1.2,5-5.1,5c-0.4,0-0.9,0-1.3,0c-2.4-0.3-5.7,0.3-7-1c-2.9-2.8-5.1-6.3-5-11
	c0.4-15,0.1-30,0.2-45c0-4.1,1.1-5.2,5.2-5.2h8.1c3.6,0.1,4.9,1.2,4.9,4.8C106.4,29.2,106.4,37.9,106.4,46.6z M100.9,23.4
	c-1.6-1.2-2.5-2.6-3.4-2.5s-1.8,1.4-2.7,2.1c0.9,0.9,1.6,2.3,2.6,2.6C98.1,26,99.3,24.6,100.9,23.4z M100.9,70.1
	c-1.6-1.2-2.6-2.4-3.5-2.4s-1.7,1.4-2.7,2.2c0.9,0.9,1.6,2.3,2.7,2.6C98.2,72.6,99.3,71.3,100.9,70.1z"/>
<path id="_3rdkey" d="M62.3,24c0,4.1,0.1,8.2,0,12.3c-0.2,1.2-0.8,2.2-1.7,2.9c-8.4,5.1-8.4,15.7,0.2,20.8c0.9,0.6,1.5,1.6,1.6,2.7
	c0.2,3.7,0.1,7.3,0,11c0,2.8-1.5,4.2-4.2,4.2h-9.8c-2.8,0-4.2-1.4-4.2-4.2c0-1.9,0-3.9,0-5.8C44.1,64,44,60.8,48.3,58
	c6.3-4.2,5-14.4-1.8-18.3c-1.6-0.7-2.5-2.3-2.3-4c0.1-7.7,0.1-15.3,0.1-23c0-3.6,1.2-4.8,4.8-4.8c3-0.1,6,0,9.1,0
	c2.8,0,4.2,1.5,4.2,4.2C62.3,16,62.3,20,62.3,24z M56.8,15.6c-1.6-1.2-2.6-2.5-3.4-2.4s-1.8,1.4-2.7,2.2c0.9,0.9,1.6,2.3,2.6,2.6
	C54,18.1,55.2,16.8,56.8,15.6z M53.2,73.7c1.2-1.6,2.6-2.7,2.5-3.4c-0.2-1-1.6-1.8-2.5-2.7c-0.8,0.9-2.2,1.7-2.3,2.6
	S52,72,53.2,73.7z"/>
<path id="_2ndkey" d="M40.2,37.7c-9.1,2.3-11.5,6-10.8,15.3c0.1,0.5,0,1.1-0.2,1.5c-2.1,3.3-4.5,6.4-7.2,9.2V9.5
	c0-4.6,1-5.6,5.4-5.6h8.4C38.6,3.9,40,5.3,40,8C40.2,17.9,40.2,27.7,40.2,37.7z M34.7,11.9c-1.5-1.3-2.5-2.6-3.4-2.6
	s-1.9,1.4-2.8,2.1c0.8,0.9,1.5,2.4,2.6,2.7C31.9,14.3,33,13,34.7,11.9z"/>
<path id="_4thkey" d="M83.7,63.9c-2.1-3-4.3-6-6.4-9.1C77,54.2,76.9,53.6,77,53c0.8-9.2-1.7-12.9-10.7-15.3c0-7.5-0.2-15,0.2-22.5
	c0.1-1.2,2.1-3.2,3.5-3.3c3.7-0.5,7.3-0.5,11,0c1.3,0.2,3.4,2.2,3.4,3.4c0.2,16.1,0.1,32.2,0,48.3C84.1,63.6,83.9,63.7,83.7,63.9z
	 M75.5,15.9c-1.3,1.5-2.6,2.4-2.6,3.3S74.2,21,75,22c1-0.8,2.4-1.5,2.7-2.5C77.8,18.8,76.5,17.6,75.5,15.9L75.5,15.9z"/>
<path id="Rightstick" class="st0" d="M73.7,49.5c0,0.1,0,0.2,0,0.3c-2.6,4.8,1,7.8,3.3,11.1c8.2,11.7,16.3,23.3,24.5,35
	c0.5,0.8,1.4,1.6,1.5,2.4c0.1,1-0.2,2.6-0.9,3s-2.2,0.2-3.2-0.3c-0.8-0.4-1.3-1.5-1.8-2.2C88,85.9,78.8,73,69.7,59.9
	c-1.1-1.6-2.1-2.7-4.6-2.7c-4.2,0.2-7.5-3.8-7.3-7.9c0.2-4.4,3.9-7.8,8.2-7.6C70.2,41.9,73.5,45.3,73.7,49.5z"/>
<path id="Leftstick" class="st0" d="M40.6,41.7c4.2,0.1,7.6,3.4,7.9,7.6c0.2,4-3,8.1-7.2,8c-2.6,0-3.6,1.1-4.8,2.8
	c-9.1,13-18.2,26-27.3,39c-0.4,0.6-0.8,1.5-1.4,1.8c-1.1,0.4-2.9,1.1-3.3,0.6c-0.8-0.8-0.8-2.3-0.8-3.6c0-0.6,0.8-1.3,1.2-1.9
	c9-12.9,18.1-25.8,27.2-38.7c1.3-1.8,1.9-3.4,1.1-5.8C31.6,46.6,35.5,41.7,40.6,41.7z"/>
<path id="Bottom2nd" d="M28.7,77.8c3.9-5.6,7.4-10.6,11.4-16.3c0,5.1,0.2,9.4-0.2,13.7c-0.1,1-2.2,2.3-3.5,2.6
	C34.1,78.2,31.7,77.8,28.7,77.8z"/>
<path id="Bottom4th" d="M77.7,77.8c-3.1,0-5.6,0.4-7.8-0.2c-1.4-0.3-3.4-2-3.6-3.2c-0.4-4-0.2-8.1-0.2-13.1
	C70.3,67.2,73.8,72.3,77.7,77.8z"/>
</svg>
