<svg xmlns="http://www.w3.org/2000/svg" viewBox="0 0 139.75 125.31"><defs><style>.cls-1{fill:#ff008f;}</style></defs><title>Bells</title><g id="Layer_2" data-name="Layer 2"><g id="Layer_1-2" data-name="Layer 1"><g id="Bells"><path id="Top_BElls" data-name="Top BElls" d="M130,68c-1.68,1.2-3.42,2.56-5.27,3.81a107.21,107.21,0,0,1-25.68,12c-.82.28-1.14.06-1.52-.59A40.59,40.59,0,0,1,91.23,64.3c-.71-6.91.16-13.65,1.41-20.45,2-10.72-1.36-19.91-9.19-27.42a3.84,3.84,0,0,0-.49-.38c-.93,1.9-1.91,3.81-2.83,5.77.71.87,1.58,1.84,2.34,2.93,4.24,6,5.27,12.62,3.75,19.86C83.56,57.12,84,69.47,89.32,81.28A73.47,73.47,0,0,0,93.89,89,10.48,10.48,0,0,0,95,90.53c-18.66,6-70.23-8.38-83.78-23.4.11-.11.17-.22.28-.27,10.55-4.62,18-12.62,23.5-22.47a68.82,68.82,0,0,0,5.6-13c2.45-7.67,7.62-12.73,15.23-15.4.39-.1.77-.27,1.2-.38a13.24,13.24,0,0,1,3.7-11.75A12.78,12.78,0,0,1,70.23,0c7,.05,13.92,6.2,12.67,15.61a24.39,24.39,0,0,1,11.26,6.8,27.92,27.92,0,0,1,5.61,10.18c4,12.07,10.55,22.52,21.16,30C123.6,64.68,126.86,66.21,130,68ZM62.28,14.91A23.77,23.77,0,0,1,75.5,18.33a7.61,7.61,0,0,0,.82-9.46,7.76,7.76,0,0,0-14,6Z"/><g id="BellRim"><path id="FrontBackbell" d="M139.7,83.45c-5.93,7.67-14,12.41-22.63,16.38-4.63,2.12-9.41,3.81-14.37,5.82.55-6,.93-11.64-1.46-17.08,11.86-4,23.06-9.31,33-17.3a41.53,41.53,0,0,1,5,9.9c.16.38.38.81.54,1.19A8.48,8.48,0,0,0,139.7,83.45Z"/><path id="FrontBell" d="M96.67,95.75a40.37,40.37,0,0,1-1,12.62,2.08,2.08,0,0,1-1.14,1,40,40,0,0,1-12.84,2.77c-16.48,1-32.2-2.55-47.71-7.72-9.08-3.05-17.79-6.91-25.46-12.73A93.09,93.09,0,0,1,.54,84.21a1.86,1.86,0,0,1-.38-2.12,41.3,41.3,0,0,1,6.14-12c12.35,10.88,27,17.2,42.6,21.49S80.29,98.25,96.67,95.75Z"/></g><g id="BottomBells"><path id="Bottom_Left_bell" data-name="Bottom Left bell" class="cls-1" d="M56,115.93a12.59,12.59,0,0,1-8.59,8.71,12.29,12.29,0,0,1-13.22-3.38,12.54,12.54,0,0,1-3.32-12.08C39.16,111.42,47.43,113.65,56,115.93Z"/><path id="Bottom_Rightbell" data-name="Bottom Rightbell" class="cls-1" d="M83.77,115.88c8.38-2.23,16.65-4.46,25.08-6.7a13,13,0,0,1-16.21,15.51C88.07,123.44,84.26,119.52,83.77,115.88Z"/></g></g></g></g></svg>