<svg xmlns="http://www.w3.org/2000/svg" viewBox="0 0 130.15 98.1"><defs><style>.cls-1{fill:#ff008f;}</style></defs><title>Choir</title><g id="Layer_2" data-name="Layer 2"><g id="Layer_1-2" data-name="Layer 1"><g id="Choir"><g id="Bodies"><path id="Body3" d="M54.17,60.57H46a22.42,22.42,0,0,1-.27-2.69c0-9,0-18,.07-26.95.07-6.61,3.84-10.45,10.44-10.58,6.2-.07,12.33-.07,18.53,0,6.4.13,10.24,4,10.31,10.31.07,9.83,0,19.67,0,29.84H76.88V98H54.17ZM75.33,42V29.38a78.63,78.63,0,0,0-7.15,3.43,5.58,5.58,0,0,1-6.19,0c-2.29-1.28-4.72-2.22-7.21-3.37V42.18c5.79-2.43,8.55-.68,7.95,5.46h4.85C66.77,41.44,69.26,39.82,75.33,42Z"/><path id="Body2" d="M130.1,60.5H122V98.1H99.31V60.71H90.82V42.85c0-4.18-.06-8.29.07-12.46.14-5.86,3.77-9.84,9.57-10q10.11-.3,20.21,0c5.26.13,9.3,3.84,9.37,8.76C130.24,39.48,130.1,49.79,130.1,60.5ZM113.6,47.57c-1.69-3-1.22-5.12,1.14-5.93,1.82-.61,4-.14,5.93-.14V29.44c-2.69,1.28-5.12,2.29-7.34,3.51a5.24,5.24,0,0,1-5.6,0c-2.29-1.28-4.78-2.29-7.47-3.57V41.91c6.19-1.89,8.82-.14,7.61,5.59C109.69,47.57,111.31,47.57,113.6,47.57Z"/><path id="Body1" d="M39.15,60.71H31.2V98.1H8.76V60.77H0V30.93c.07-6.27,4-10.38,10.24-10.51s12.8-.14,19.2,0c5.8.13,10,4,10.11,9.63.2,9.77.07,19.54.07,29.31A8.49,8.49,0,0,1,39.15,60.71Zm-9-19.48V29.38a40.09,40.09,0,0,0-5.05,2.35c-3.5,2.36-6.87,2.56-10.44.07A36.41,36.41,0,0,0,9.5,29.38V42c6.33-2.09,8.62-.6,8,5.53h4c.81-2.5,1-4.92,1.89-5.39C25.33,41.3,27.83,41.5,30.18,41.23Z"/><path id="Head3" d="M119.19,8.89a8.73,8.73,0,1,1-17.45-.4,8.73,8.73,0,0,1,17.45.4Z"/><path id="Head2" d="M74.05,8.62a8.7,8.7,0,0,1-17.39.48,8.7,8.7,0,1,1,17.39-.48Z"/><path id="Head1" d="M28.5,8.69a8.69,8.69,0,0,1-8.69,8.76,8.6,8.6,0,0,1-8.63-8.76,8.66,8.66,0,0,1,17.32,0Z"/></g><g id="BOOKS"><path id="Book3" class="cls-1" d="M113.6,47.57h-5.73c1.21-5.8-1.42-7.55-7.61-5.59V29.44c2.69,1.28,5.18,2.29,7.47,3.57a5.24,5.24,0,0,0,5.6,0c2.22-1.28,4.65-2.22,7.34-3.5V41.57c-2,0-4.11-.47-5.93.14C112.38,42.45,111.91,44.6,113.6,47.57Z"/><path id="Book2" class="cls-1" d="M75.33,42c-6.07-2.22-8.56-.6-7.75,5.6H62.73c.6-6.14-2.16-7.89-7.95-5.46V29.44c2.49,1.15,4.92,2.09,7.21,3.37a5.58,5.58,0,0,0,6.19,0c2.16-1.28,4.59-2.22,7.15-3.43Z"/><path id="Book1" class="cls-1" d="M30.18,41.23c-2.35.27-4.85.07-6.8,1-1,.47-1.08,2.89-1.89,5.39h-4C18.12,41.44,15.83,40,9.5,42V29.38a31.13,31.13,0,0,1,5.19,2.42c3.57,2.49,6.87,2.36,10.44-.07a40.09,40.09,0,0,1,5.05-2.35Z"/></g></g></g></g></svg>