<svg xmlns="http://www.w3.org/2000/svg" viewBox="0 0 144.27 81.1"><defs><style>.cls-1{fill:#ff008f;}</style></defs><title>Cloud</title><g id="Layer_2" data-name="Layer 2"><g id="Layer_1-2" data-name="Layer 1"><g id="Cloud"><path id="CloudStroke" class="cls-1" d="M74,81.1H27.22c-8.15,0-15.34-2.68-21-8.69a22.09,22.09,0,0,1,1.39-32,27.73,27.73,0,0,1,9.49-5.63,1.17,1.17,0,0,0,1-1.23A34.77,34.77,0,0,1,45.93.89c12.65-2.57,23.86.43,33.46,9.17a23.86,23.86,0,0,1,2.52,2.68,1.26,1.26,0,0,0,1.5.43c11.47-2.79,21.5-.32,29.76,8.25a25.16,25.16,0,0,1,6,10.94c.16.65.43.81,1.07.75,9.82-.37,17,4.08,21.18,12.71,4.4,8.9,3.7,17.8-2.09,25.9-4.56,6.43-11,9.49-19,9.27-3.54-.1-7.08,0-10.61,0-11.91.11-23.81.11-35.71.16Zm6.38-60.53c-.91-1.24-1.72-2.47-2.68-3.6A30.92,30.92,0,0,0,39.28,9.63C29.85,14.83,24.48,22.82,24,33.76c-.11,1.71,0,3.48,0,5.3-.54.11-1.18.27-1.83.43a22.88,22.88,0,0,0-9.22,4.13c-9.17,7-9.38,19.41-.37,26.6a23.08,23.08,0,0,0,14.9,5q34.19,0,68.42,0c8.52,0,17.05,0,25.63,0a15.18,15.18,0,0,0,9.7-3.38,19.06,19.06,0,0,0,4.61-23.91c-3.64-6.6-11-10.51-18.92-8.15-.81.21-1.61.43-2.58.64-.21-8.58-3.75-15.23-11.26-19.41C95.69,16.87,88.07,17.08,80.41,20.57Z"/><path id="InsideCloud" d="M80.41,20.57c7.66-3.49,15.28-3.7,22.68.37s11,10.83,11.26,19.41c1-.27,1.82-.43,2.57-.64,7.94-2.36,15.28,1.55,18.93,8.15a19.14,19.14,0,0,1-4.61,23.91,15.32,15.32,0,0,1-9.71,3.38H95.9q-34.19,0-68.41,0a23.09,23.09,0,0,1-14.91-5c-9-7.19-8.79-19.63.38-26.6a22.46,22.46,0,0,1,9.22-4.13c.64-.16,1.29-.26,1.82-.43,0-1.82-.05-3.53,0-5.3.54-10.94,5.9-18.93,15.34-24.13A30.91,30.91,0,0,1,77.78,17C78.69,18.1,79.5,19.33,80.41,20.57Zm-37.8-8.15c-8.37,5.3-14.8,18.39-12.44,25.3.75-.1,1.5-.21,2.25-.37a1.1,1.1,0,0,0,.37-.16c-.48-9.65,4-16.84,11.48-22.47C43.73,13.92,43.2,13.22,42.61,12.42Z"/><path id="Curve" class="cls-1" d="M42.61,12.42c.53.8,1.07,1.5,1.66,2.3-7.51,5.63-12,12.82-11.48,22.47-.1.05-.26.1-.37.16-.75.11-1.5.27-2.25.37C27.86,30.81,34.3,17.72,42.61,12.42Z"/></g></g></g></svg>