<svg xmlns="http://www.w3.org/2000/svg" viewBox="0 0 116.31 111.69"><defs><style>.cls-1{fill:#ff008f;}</style></defs><title>Drums</title><g id="Layer_2" data-name="Layer 2"><g id="Layer_1-2" data-name="Layer 1"><g id="Drums"><circle class="cls-1" cx="57.6" cy="77.53" r="26"/><path id="KickDrum" d="M69.63,103.26a28.47,28.47,0,0,1-23.17,0,45.69,45.69,0,0,1-2.34,6.47c-.44.87-1.85,1.25-2.83,1.85-.33-1-1.25-2.4-.87-3,2.88-5.12,1-8.22-3-12.14-8.49-8.32-9.63-21.65-3.86-32a27.89,27.89,0,0,1,52.06,9.3c1.52,10.56-2.07,19.21-10.12,25.9-1.69,1.41-2.12,2.5-1.25,4.46a15,15,0,0,1,1.47,4.52c.11,1-.6,2-1,3-1-.6-2.34-1-2.78-1.85A55.41,55.41,0,0,1,69.63,103.26Zm-11.69-1.69a23.83,23.83,0,1,0-23.83-24A24,24,0,0,0,57.94,101.57Z"/><g id="Crashes"><path id="RightCrash" d="M94,19.8c-4.79.76-9.2,1.53-13.6,2.07-1,.11-2.13-.6-3.21-.93.65-1,1.08-2.44,2-3C83.4,15.67,87.64,13.6,92,11.64c1.36-.6,2.07-1.19,2-2.77A32.35,32.35,0,0,1,94,2.34C94.12,1.52,95.15.76,95.75,0c.76.76,2,1.47,2.12,2.34A46.65,46.65,0,0,1,98,9.14c4.51-.71,8.76-1.52,13-2,1.2-.11,2.45.65,3.7,1-.81,1-1.46,2.45-2.5,3.05a82.69,82.69,0,0,1-11.15,5.55c-2.5,1-3.21,2.17-3.1,4.73.22,5.93,0,11.91,0,18.11-1.3.33-2.5.6-4,1Z"/><path id="LeftCrash" d="M22.14,27.85V40.58c-1.47-.32-2.66-.59-4.08-.87,0-3.8-.11-7.5.06-11.15.05-1.9-.55-2.77-2.34-3.48A123.62,123.62,0,0,1,4.52,19.69c-1.31-.7-2.34-2-4.19-3.59,6.63-2.61,11.91.6,17.57,1.15A9.1,9.1,0,0,1,18.17,14c.38-.81,1.41-1.36,2.18-2,.59.71,1.57,1.31,1.68,2.12a25.47,25.47,0,0,1,.06,4.52c3.86,1.74,7.5,3.37,11,5.11a19.65,19.65,0,0,1,4,2.56,10.76,10.76,0,0,1,1.63,2.61c-1,.38-2,1.14-2.88,1C31.5,29.32,27,28.56,22.14,27.85Z"/></g><g id="Snares"><path id="Left_Snare" data-name="Left Snare" d="M9,46.3c-1.25-.33-2.28-.55-3.7-.93.16-1.2.27-2.28.49-4,12.84,2.45,25.41,4.9,38.68,7.4-11.7,6.53-17.79,15.88-18.39,29L0,72.79c.22-1.36.44-2.5.6-3.7h4C6.09,61.53,7.56,54,9,46.3Z"/><path id="Right_Snare" data-name="Right Snare" d="M71.54,48.85c13.38-2.55,25.84-5,38.62-7.4.28,1.53.44,2.67.66,3.92-1.31.33-2.34.6-3.7.93,1.47,7.56,2.88,15.12,4.4,23l3.87-.17c.27,1,.54,2.18.92,3.76C107.5,74.59,99,76.27,90.14,78a35,35,0,0,0-5-16.81C81.88,55.93,77.52,52.12,71.54,48.85Z"/></g><g id="DrumLegs"><path id="RightLeg" d="M98,80.73c0,6.1-.11,11.92.06,17.79a5,5,0,0,0,1.79,3.27c2.67,2.06,5.66,3.7,8.33,5.76.76.6,1.57,2.23,1.3,3-.65,1.75-2.17,1.2-3.48.33-2.72-1.79-5.55-3.53-8.16-5.49a2.88,2.88,0,0,0-4,.05,81.28,81.28,0,0,1-8.22,5.39c-.87.49-2.23,0-3.37-.06.38-1.09.38-2.55,1.14-3.15a76.11,76.11,0,0,1,8.16-5.5A4.19,4.19,0,0,0,94,97.81c-.16-4.56,0-9.13,0-13.7C94,80.62,94,80.62,98,80.73Z"/><path id="LeftLeg" d="M18.06,80.73c3.05-.54,4.3.27,4.14,3.38-.22,4.78-.17,9.57,0,14.3a5.09,5.09,0,0,0,1.74,3.27c2.77,2.12,5.82,3.81,8.59,5.93.76.6.82,2.06,1.2,3.15-1.14.06-2.5.55-3.37.11a48,48,0,0,1-7.46-5c-2.06-1.69-3.7-1.52-5.71.11A44.29,44.29,0,0,1,10,110.76c-.92.49-2.34-.05-3.54-.16.44-1,.6-2.45,1.36-3a77.36,77.36,0,0,1,7.89-5.33,4.23,4.23,0,0,0,2.34-4.3C18,92.21,18.06,86.44,18.06,80.73Z"/></g></g></g></g></svg>