<svg xmlns="http://www.w3.org/2000/svg" viewBox="0 0 104.56 104.29"><defs><style>.cls-1{fill:#ff008f;}</style></defs><title>Flute</title><g id="Layer_2" data-name="Layer 2"><g id="Layer_1-2" data-name="Layer 1"><g id="Flute"><path id="FluteBody" d="M104.56,97.76c-2.18,2.12-4.57,4.41-6.69,6.53q-41.46-41.46-82.8-82.8c2.12-2.12,4.46-4.57,6.53-6.64Q62.9,56.06,104.56,97.76Z"/><path id="MouthPeice" d="M0,6.31C2.23,4.24,4.57,2,6.75,0c3.86,4,7.83,8,11.86,12.19-1.91,1.9-4.3,4.19-6.48,6.36C8.11,14.53,4.19,10.55,0,6.31Z"/><circle id="Circle7" class="cls-1" cx="88.89" cy="88.4" r="2.01"/><circle id="Circle6" class="cls-1" cx="81.6" cy="81.11" r="2.01"/><circle id="Circle5" class="cls-1" cx="73.77" cy="73.23" r="2.01"/><circle id="Circle4" class="cls-1" cx="66.37" cy="65.83" r="2.01"/><circle id="Circle3" class="cls-1" cx="58.26" cy="57.72" r="2.01"/><circle id="Circle2" class="cls-1" cx="49.89" cy="49.72" r="2.01"/><circle id="Circle1" class="cls-1" cx="41.62" cy="41.45" r="2.01"/></g></g></g></svg>