<svg id="Piano" xmlns="http://www.w3.org/2000/svg" viewBox="0 0 106.91 108.12"><defs><style>.cls-1{fill:#ff008f;}</style></defs><title>Piano</title><path id="Outerlater" class="cls-1" d="M106.9,53.75V94.17a13.46,13.46,0,0,1-13,13.93q-.47,0-.93,0H14c-8.18,0-14-5.82-14-13.93v-80C0,5.71,5.71,0,14.14,0H92.27a15.69,15.69,0,0,1,6.14,1,13.48,13.48,0,0,1,8.49,13ZM19.31,4.13c-2.17,0-4.19-.1-6.25,0a9.29,9.29,0,0,0-8.93,9.42c0,27,0,54.13.06,81.16a9.17,9.17,0,0,0,9.08,9.09H26.33V62.18c-1.09,0-2.12.06-3.15,0-2.56-.11-3.87-1.47-3.87-4v-54ZM88,4.24V58.48c0,2-.7,3-2.61,3.48a11.19,11.19,0,0,1-3,.28c-1.08-.06-1.3.27-1.3,1.3q.07,19.5,0,39a11.4,11.4,0,0,0,.11,1.3H94.44a2.05,2.05,0,0,0,.6-.11,9.34,9.34,0,0,0,7.67-9.52c.06-3.64.06-7.34.06-11V13.82A9.14,9.14,0,0,0,94.61,4.3,52.07,52.07,0,0,0,88,4.24ZM77.58,103.8V62.24H74.75c-2.56-.11-3.86-1.47-3.86-4V4.13c-2.62,0-5.12.06-7.57,0-1.19,0-1.52.27-1.52,1.52.06,17.63,0,35.31,0,52.94,0,2.06-.65,3-2.72,3.48a26.12,26.12,0,0,1-3.64.38v41.4ZM44.88,4.13h-7c-1.53,0-1.53,0-1.53,1.53V58.59c0,2-.65,3-2.66,3.43A26.83,26.83,0,0,1,30,62.4v41.34H51.85V62.29c-1.09,0-2.07.05-3.05,0-2.61-.11-4-1.47-4-4V5.82A11.14,11.14,0,0,0,44.88,4.13Z" transform="translate(0 0.01)"/><g id="Keys"><path id="key4" d="M88,4.24a42.63,42.63,0,0,1,6.59.06c5,.7,8.1,4.46,8.16,9.52V83.24c0,3.64,0,7.34-.06,11a9.34,9.34,0,0,1-7.69,9.5,2.05,2.05,0,0,1-.6.11H81.22a11.21,11.21,0,0,1-.11-1.3v-39c0-1,.27-1.36,1.3-1.3a9.48,9.48,0,0,0,3-.28c1.91-.49,2.61-1.52,2.61-3.48V4.24Z" transform="translate(0 0.01)"/><path id="key3" d="M77.58,103.8H55.49V62.4a28.09,28.09,0,0,0,3.65-.4c2.06-.44,2.72-1.42,2.72-3.48V5.6c0-1.19.32-1.52,1.52-1.52,2.45.11,4.95,0,7.56,0V58.21c0,2.5,1.31,3.92,3.86,4h2.83C77.58,76.11,77.58,89.93,77.58,103.8Z" transform="translate(0 0.01)"/><path id="key2" d="M44.88,4.13V58.21c0,2.56,1.31,4,4,4h3v41.45H30V62.34A25.17,25.17,0,0,0,33.78,62c2-.43,2.67-1.41,2.67-3.42V5.6c0-1.52,0-1.52,1.52-1.52C40.15,4.13,42.43,4.13,44.88,4.13Z" transform="translate(0 0.01)"/><path id="key1" d="M19.31,4.13V58.21c0,2.56,1.25,3.86,3.87,4h3.15v41.61H13.27a9.15,9.15,0,0,1-9.08-9.08q0-40.56-.06-81.17a9.24,9.24,0,0,1,8.93-9.41C15.12,4,17.14,4.13,19.31,4.13Z" transform="translate(0 0.01)"/></g></svg>