<?xml version="1.0" encoding="utf-8"?>
<!-- Generator: Adobe Illustrator 23.0.3, SVG Export Plug-In . SVG Version: 6.00 Build 0)  -->
<svg version="1.1" id="Disk_Paino" xmlns="http://www.w3.org/2000/svg" xmlns:xlink="http://www.w3.org/1999/xlink" x="0px" y="0px"
	 viewBox="0 0 443.6 443.7" style="enable-background:new 0 0 443.6 443.7;" xml:space="preserve">
<style type="text/css">
	.st0{fill:#010101;}
	.st1{fill:none;stroke:#6D6E71;stroke-width:5;stroke-miterlimit:10;}
	.st2{fill:#999999;stroke:#6D6E71;stroke-width:5;stroke-miterlimit:10;}
	.st3{fill:#FFFFFF;}
</style>
<path id="Blackoutterdisk" class="st0" d="M0,239.7c0-11.8,0-23.7,0-35.5c1-7.5,0.8-15.1,2.2-22.6c6-31,17.5-59.6,35.3-85.7
	c8.1-11.8,17-23,27.3-32.9c34.9-33.5,75.9-54.8,124-61.8c5.1-0.7,10.3-0.3,15.4-1.2c11.2,0,22.5,0,33.7,0c3,1.1,6.3,0.5,9.4,0.7
	c21.4,1.4,41.6,7.7,61.3,15.8c25.9,10.6,49,25.9,68.7,45.7c35.4,35.6,57.7,78.2,64.8,128.1c2.3,16,1.4,32.2,1,48.3
	c-0.4,16.6-3.9,32.6-8.6,48.3c-5.3,17.8-12.9,34.5-22.5,50.4c-9.6,15.7-20.7,30.2-33.9,43c-35.2,34.1-77.1,55.2-125.8,61.9
	c-16,2.2-32.2,1.5-48.3,0.9c-27.9-0.9-53.9-9-78.9-20.7c-19.3-9.1-36.7-21-52.6-35.2c-17.2-15.3-31.4-32.9-43-52.7
	c-14.6-24.9-24.2-51.6-28.2-80.2C0.5,249.4,0.9,244.5,0,239.7z"/>
<path id="thinring" class="st1" d="M46.9,231.4c0-9.3,0-18.7,0-28c0.8-5.9,0.6-11.9,1.8-17.9c4.7-24.4,13.8-47,27.8-67.6
	c6.4-9.3,13.4-18.1,21.5-25.9c27.5-26.4,59.9-43.2,97.8-48.7c4-0.6,8.1-0.2,12.1-0.9c8.9,0,17.7,0,26.6,0c2.4,0.9,4.9,0.4,7.4,0.5
	c16.9,1.1,32.8,6.1,48.3,12.4c20.5,8.4,38.7,20.4,54.2,36c27.9,28,45.5,61.6,51.1,101c1.8,12.6,1.1,25.4,0.8,38.1
	c-0.3,13.1-3.1,25.7-6.8,38.1c-4.2,14-10.1,27.2-17.8,39.7c-7.6,12.4-16.3,23.8-26.7,33.9c-27.8,26.9-60.8,43.5-99.2,48.8
	c-12.6,1.7-25.4,1.2-38.1,0.7c-22-0.7-42.5-7.1-62.2-16.4c-15.2-7.2-28.9-16.6-41.5-27.8c-13.5-12.1-24.8-26-33.9-41.6
	c-11.5-19.6-19.1-40.7-22.3-63.3C47.3,239.1,47.6,235.2,46.9,231.4z"/>
<path id="GreyInnerDisk" class="st2" d="M82.9,228.5c0-7.4,0-14.8,0-22.2c0.6-4.7,0.5-9.5,1.4-14.2c3.8-19.4,10.9-37.3,22.1-53.7
	c5.1-7.4,10.6-14.4,17.1-20.6c21.8-21,47.5-34.3,77.7-38.7c3.2-0.5,6.4-0.2,9.6-0.7c7,0,14.1,0,21.1,0c1.9,0.7,3.9,0.3,5.9,0.4
	c13.4,0.9,26,4.8,38.4,9.9c16.2,6.7,30.7,16.2,43,28.6c22.2,22.3,36.1,49,40.6,80.2c1.4,10,0.9,20.1,0.6,30.2
	c-0.2,10.4-2.4,20.4-5.4,30.3c-3.3,11.1-8.1,21.6-14.1,31.6c-6,9.8-13,18.9-21.2,26.9c-22.1,21.4-48.3,34.6-78.8,38.8
	c-10,1.4-20.1,0.9-30.3,0.6c-17.5-0.6-33.8-5.6-49.4-13c-12.1-5.7-23-13.2-33-22.1c-10.7-9.6-19.7-20.6-26.9-33
	c-9.1-15.6-15.2-32.3-17.7-50.2C83.2,234.6,83.5,231.5,82.9,228.5z"/>
<g id="Piano">
	<path id="Outerlater" d="M319.2,217.2c0,24.8,0,49.5,0,74.3c0,14.9-10.8,25.6-25.6,25.6c-48.4,0-96.9,0-145.3,0
		c-14.9,0-25.6-10.7-25.6-25.6c0-49,0-98,0-147.1c0-15.5,10.5-26,26-26c47.9,0,95.7,0,143.6,0c3.9,0,7.6,0.3,11.3,1.8
		c9.7,3.9,15.6,12.8,15.6,23.9C319.2,168.4,319.2,192.8,319.2,217.2C319.2,217.2,319.2,217.2,319.2,217.2z M158.2,126
		c-4,0-7.7-0.2-11.5,0c-9.4,0.5-16.4,7.9-16.4,17.3c0,49.7,0,99.5,0.1,149.2c0,9.1,7.6,16.7,16.7,16.7c7.2,0,14.5,0,21.7,0
		c0.8,0,1.5,0,2.3,0c0-25.7,0-51,0-76.5c-2,0-3.9,0.1-5.8,0c-4.7-0.2-7.1-2.7-7.1-7.4c0-32.2,0-64.4,0-96.6
		C158.2,127.9,158.2,127.1,158.2,126z M284.5,126.2c0,0.9,0,1.7,0,2.6c0,14.6,0,29.3,0,43.9c0,17.7,0,35.5,0,53.2
		c0,3.7-1.3,5.5-4.8,6.4c-1.8,0.4-3.7,0.6-5.6,0.5c-2-0.1-2.4,0.5-2.4,2.4c0.1,23.9,0.1,47.8,0.1,71.7c0,0.8,0.1,1.5,0.2,2.4
		c7.7,0,15.2,0,22.6,0c0.6,0,1.2,0,1.7,0c0.4,0,0.7-0.1,1.1-0.2c8.7-1.9,14-8.5,14.1-17.5c0.1-6.7,0.1-13.5,0.1-20.2
		c0-30.5,0-61,0-91.5c0-12,0-24,0-36.1c0-9.3-5.8-16.2-15-17.5C292.8,125.8,288.8,126.2,284.5,126.2z M265.3,309.2
		c0-25.5,0-50.9,0-76.4c-1.9,0-3.5,0.1-5.2,0c-4.7-0.2-7.1-2.7-7.1-7.4c0-32.1,0-64.3,0-96.4c0-0.9,0-1.8,0-3
		c-4.8,0-9.4,0.1-13.9-0.1c-2.2-0.1-2.8,0.5-2.8,2.8c0.1,32.4,0,64.9,0,97.3c0,3.8-1.2,5.6-5,6.4c-2.1,0.5-4.4,0.5-6.7,0.7
		c0,25.3,0,50.7,0,76.1C238.3,309.2,251.7,309.2,265.3,309.2z M205.2,126c-4.4,0-8.6,0-12.8,0c-2.8,0-2.8,0-2.8,2.8
		c0,32.4,0,64.9,0,97.3c0,3.6-1.2,5.5-4.9,6.3c-2.2,0.5-4.5,0.5-6.9,0.7c0,25.3,0,50.7,0,76c13.6,0,26.9,0,40.2,0
		c0-25.5,0-50.8,0-76.2c-2,0-3.8,0.1-5.6,0c-4.8-0.2-7.3-2.7-7.3-7.4c0-32.1,0-64.3,0-96.4C205.2,128.1,205.2,127.2,205.2,126z"/>
	<g id="Keys">
		<path id="key4" class="st3" d="M284.5,126.2c4.3,0,8.3-0.5,12.1,0.1c9.2,1.3,14.9,8.2,15,17.5c0,12,0,24,0,36.1
			c0,30.5,0,61,0,91.5c0,6.7,0,13.5-0.1,20.2c-0.1,9-5.4,15.6-14.1,17.5c-0.4,0.1-0.7,0.2-1.1,0.2c-0.6,0-1.2,0-1.7,0
			c-7.5,0-14.9,0-22.6,0c-0.1-0.8-0.2-1.6-0.2-2.4c0-23.9,0-47.8-0.1-71.7c0-1.9,0.5-2.5,2.4-2.4c1.8,0.1,3.8,0,5.6-0.5
			c3.5-0.9,4.8-2.8,4.8-6.4c0-17.7,0-35.5,0-53.2c0-14.6,0-29.3,0-43.9C284.5,127.9,284.5,127.1,284.5,126.2z"/>
		<path id="key3" class="st3" d="M265.3,309.2c-13.6,0-27,0-40.6,0c0-25.4,0-50.8,0-76.1c2.3-0.2,4.5-0.2,6.7-0.7
			c3.8-0.8,5-2.6,5-6.4c0-32.4,0-64.9,0-97.3c0-2.2,0.6-2.8,2.8-2.8c4.5,0.2,9.1,0.1,13.9,0.1c0,1.2,0,2.1,0,3c0,32.1,0,64.3,0,96.4
			c0,4.6,2.4,7.2,7.1,7.4c1.7,0.1,3.3,0,5.2,0C265.3,258.3,265.3,283.7,265.3,309.2z"/>
		<path id="key2" class="st3" d="M205.2,126c0,1.2,0,2.1,0,3c0,32.1,0,64.3,0,96.4c0,4.7,2.4,7.3,7.3,7.4c1.8,0.1,3.6,0,5.6,0
			c0,25.4,0,50.7,0,76.2c-13.3,0-26.7,0-40.2,0c0-25.3,0-50.7,0-76c2.3-0.2,4.7-0.2,6.9-0.7c3.6-0.8,4.9-2.6,4.9-6.3
			c0-32.4,0-64.9,0-97.3c0-2.8,0-2.8,2.8-2.8C196.5,126,200.7,126,205.2,126z"/>
		<path id="key1" class="st3" d="M158.2,126c0,1.1,0,1.9,0,2.8c0,32.2,0,64.4,0,96.6c0,4.7,2.3,7.1,7.1,7.4c1.9,0.1,3.7,0,5.8,0
			c0,25.5,0,50.8,0,76.5c-0.7,0-1.5,0-2.3,0c-7.2,0-14.5,0-21.7,0c-9.1,0-16.7-7.6-16.7-16.7c0-49.7,0-99.5-0.1-149.2
			c0-9.4,6.9-16.8,16.4-17.3C150.5,125.8,154.2,126,158.2,126z"/>
	</g>
</g>
</svg>
